<svg width="18" height="18" viewBox="0 0 18 18" fill="none" xmlns="http://www.w3.org/2000/svg">
<g clip-path="url(#clip0_1_719)">
<path d="M12.0648 0.466797H5.73859C2.82751 0.466797 0.466797 2.82751 0.466797 5.73859V12.0648C0.466797 14.9758 2.82751 17.3365 5.73859 17.3365H12.0648C14.9758 17.3365 17.3365 14.9758 17.3365 12.0648V5.73859C17.3365 2.82751 14.9758 0.466797 12.0648 0.466797ZM15.755 12.0648C15.755 14.0997 14.0997 15.755 12.0648 15.755H5.73859C3.70368 15.755 2.04834 14.0997 2.04834 12.0648V5.73859C2.04834 3.70368 3.70368 2.04834 5.73859 2.04834H12.0648C14.0997 2.04834 15.755 3.70368 15.755 5.73859V12.0648Z" fill="black"/>
<path d="M8.90152 4.68408C6.57244 4.68408 4.68408 6.57244 4.68408 8.90152C4.68408 11.2306 6.57244 13.119 8.90152 13.119C11.2306 13.119 13.119 11.2306 13.119 8.90152C13.119 6.57244 11.2306 4.68408 8.90152 4.68408ZM8.90152 11.5374C7.44861 11.5374 6.26562 10.3544 6.26562 8.90152C6.26562 7.44756 7.44861 6.26562 8.90152 6.26562C10.3544 6.26562 11.5374 7.44756 11.5374 8.90152C11.5374 10.3544 10.3544 11.5374 8.90152 11.5374Z" fill="black"/>
<path d="M13.4355 4.9301C13.7459 4.9301 13.9975 4.6785 13.9975 4.36813C13.9975 4.05776 13.7459 3.80615 13.4355 3.80615C13.1251 3.80615 12.8735 4.05776 12.8735 4.36813C12.8735 4.6785 13.1251 4.9301 13.4355 4.9301Z" fill="black"/>
</g>
<defs>
<clipPath id="clip0_1_719">
<rect width="18" height="18" fill="white"/>
</clipPath>
</defs>
</svg>
