<svg width="205" height="101" viewBox="0 0 205 101" fill="none" xmlns="http://www.w3.org/2000/svg">
<path d="M87.6564 96.5786H12.2536C9.25516 96.5786 6.69859 94.4166 6.20938 91.4576L4 78.9589H95.91L93.7006 91.4576C93.2035 94.4087 90.647 96.5786 87.6564 96.5786Z" fill="#161D21"/>
<path d="M89.5975 84.648H10.3125C6.82484 84.648 4 81.8231 4 78.3355V11.3125C4 7.82484 6.82484 5 10.3125 5H89.5975C93.0852 5 95.91 7.82484 95.91 11.3125V78.3434C95.91 81.8231 93.0852 84.648 89.5975 84.648Z" fill="url(#paint0_linear_1_473)"/>
<path d="M32.1695 43.0643H14.7865C12.1747 43.0643 10.0521 40.9417 10.0521 38.3299V13.9084C10.0521 11.2967 12.1747 9.17407 14.7865 9.17407H32.1695C34.7813 9.17407 36.9039 11.2967 36.9039 13.9084V38.3299C36.9039 40.9417 34.7813 43.0643 32.1695 43.0643Z" fill="#E53A35"/>
<g opacity="0.2">
<path opacity="0.2" d="M89.345 7.68282C91.6096 7.68282 93.4481 9.52134 93.4481 11.7859V78.3118C93.4481 78.4617 93.4324 78.6353 93.4087 78.8642C93.385 79.0141 93.385 79.1719 93.3929 79.3218L91.2782 91.284C90.9863 93.0594 89.4634 94.3456 87.6643 94.3456H12.2536C10.4545 94.3456 8.93164 93.0594 8.6318 91.2603L6.51711 79.3218C6.525 79.1719 6.51711 79.0141 6.50133 78.8642C6.46977 78.6432 6.46188 78.4696 6.46188 78.3118V11.7859C6.46188 9.52134 8.30039 7.68282 10.565 7.68282H89.345ZM89.345 5.22095H10.565C6.9432 5.22095 4 8.15626 4 11.7859V78.3118C4 78.6117 4.02367 78.8957 4.06312 79.1877H4L6.20938 91.6864C6.69859 94.6375 9.25516 96.8074 12.2536 96.8074H87.6564C90.6549 96.8074 93.2114 94.6454 93.7006 91.6864L95.91 79.1877H95.8469C95.8863 78.9036 95.91 78.6117 95.91 78.3118V11.7859C95.91 8.15626 92.9668 5.22095 89.345 5.22095Z" fill="#EEEEEE"/>
</g>
<path d="M9.83116 74.3112V55.3264C9.83116 52.7146 11.9537 50.592 14.5655 50.592H54.1528C56.7646 50.592 58.8872 52.7146 58.8872 55.3264V74.3034C58.8872 76.9151 56.7646 79.0377 54.1528 79.0377H14.5655C11.9458 79.0456 9.83116 76.923 9.83116 74.3112Z" fill="#E53A35"/>
<path d="M65.1681 73.8929V55.7445C65.1681 53.1327 67.2907 51.0101 69.9025 51.0101H85.1235C87.7353 51.0101 89.8579 53.1327 89.8579 55.7445V73.8929C89.8579 76.5047 87.7353 78.6273 85.1235 78.6273H69.9025C67.2907 78.6273 65.1681 76.5126 65.1681 73.8929Z" fill="#E53A35"/>
<path d="M85.881 43.4667H47.0355C44.4237 43.4667 42.3011 41.3442 42.3011 38.7324V13.9084C42.3011 11.2967 44.4237 9.17407 47.0355 9.17407H85.881C88.4928 9.17407 90.6154 11.2967 90.6154 13.9084V38.7402C90.6154 41.352 88.4928 43.4667 85.881 43.4667Z" fill="#E53A35"/>
<path d="M76.0966 53.3538H75.347V54.127H76.0966V53.3538Z" fill="#A16541"/>
<path d="M61.57 82.4071H6.29613L7.02206 68.4012C7.70066 59.5795 15.2283 52.4069 24.0106 51.3101C26.796 50.9629 30.0785 50.7499 33.937 50.7499C37.7955 50.7499 41.078 50.9629 43.8634 51.3101C52.6378 52.4069 60.1733 59.5795 60.8519 68.4012L61.57 82.4071Z" fill="url(#paint1_radial_1_473)"/>
<path d="M59.8498 83.0225C61.7237 83.0225 63.2428 81.5034 63.2428 79.6295C63.2428 77.7557 61.7237 76.2366 59.8498 76.2366C57.9759 76.2366 56.4568 77.7557 56.4568 79.6295C56.4568 81.5034 57.9759 83.0225 59.8498 83.0225Z" fill="url(#paint2_radial_1_473)"/>
<path d="M60.8519 70.9815C61.7436 70.366 62.3275 69.3482 62.3275 68.1803C62.3275 67.1546 61.8698 66.2393 61.1439 65.6159C60.6231 65.174 60.4337 64.456 60.5521 63.7853C60.5836 63.5959 60.5994 63.4065 60.5994 63.2092C60.5994 61.3313 59.0765 59.8163 57.2065 59.8163C57.1907 59.8163 57.1828 59.8163 57.167 59.8242C57.1986 59.6269 57.2301 59.4296 57.2301 59.2245C57.2301 57.3465 55.7072 55.8315 53.8372 55.8315C53.8372 53.9535 52.3143 52.4385 50.4442 52.4385C50.3022 52.4385 50.168 52.4464 50.0339 52.4622C49.3632 52.549 48.724 52.2097 48.2979 51.6889C47.6825 50.9314 46.7435 50.4422 45.6861 50.4422C45.2048 50.4422 44.755 50.5448 44.3447 50.7263C43.8397 50.9551 43.2243 50.8604 42.814 50.4896C42.2143 49.953 41.4331 49.6216 40.5572 49.6216C39.9733 49.6216 39.4289 49.7715 38.9554 50.0319C38.4583 50.3081 37.8113 50.2449 37.4089 49.8425C36.8013 49.2349 35.9649 48.8562 35.0338 48.8562C34.3473 48.8562 33.7161 49.0614 33.1795 49.4164C32.6666 49.7557 32.0275 49.7557 31.5146 49.4164C30.9859 49.0614 30.3468 48.8562 29.6603 48.8562C28.6661 48.8562 27.7744 49.2823 27.159 49.9609C26.7329 50.4343 26.0385 50.5764 25.4309 50.387C25.1232 50.2923 24.7918 50.2371 24.4446 50.2371C23.6634 50.2371 22.9454 50.5053 22.3772 50.9472C21.7618 51.4285 20.9964 51.6889 20.231 51.5232C20.0101 51.4759 19.7733 51.4522 19.5366 51.4522C17.8796 51.4522 16.5066 52.6358 16.2068 54.206C16.0647 54.1903 15.9227 54.1666 15.7807 54.1666C14.0132 54.1666 12.585 55.5159 12.4193 57.236C12.4114 57.236 12.3956 57.236 12.3877 57.236C10.5097 57.236 8.99474 58.7589 8.99474 60.629C8.99474 60.6606 8.99474 60.6842 8.99474 60.7158C9.01052 61.3313 8.71068 61.8915 8.19779 62.2308C7.28248 62.8384 6.6749 63.8721 6.6749 65.0478C6.6749 65.7185 6.88005 66.3418 7.21146 66.8705C6.64333 67.4781 6.28826 68.2908 6.28826 69.1903C6.28826 70.1846 6.72224 71.0762 7.40872 71.6996C6.72224 72.3229 6.28037 73.2146 6.28037 74.2167C6.28037 75.3292 6.82482 76.3077 7.65333 76.931C6.6749 77.6649 6.09099 78.9037 6.3356 80.2688C6.57232 81.5944 7.62177 82.6833 8.9474 82.9595C11.141 83.4171 13.0663 81.7522 13.0663 79.6375C13.0663 78.525 12.5218 77.5465 11.6933 76.9232C12.5218 76.3077 13.0663 75.3214 13.0663 74.2088C13.0663 73.2146 12.6323 72.3229 11.9458 71.6996C12.6323 71.0762 13.0742 70.1846 13.0742 69.1825C13.0742 68.5117 12.869 67.8884 12.5376 67.3597C13.1058 66.7521 13.4608 65.9394 13.4608 65.0399C13.4608 64.6375 13.3819 64.2508 13.2478 63.8957C14.5971 63.5407 15.6071 62.3807 15.7491 60.9525C15.757 60.9525 15.7728 60.9525 15.7807 60.9525C17.4377 60.9525 18.8107 59.7689 19.1105 58.1987C19.2526 58.2145 19.3946 58.2382 19.5366 58.2382C20.8386 58.2382 21.959 57.4964 22.5272 56.4233C23.0716 56.8021 23.7344 57.023 24.4446 57.023C25.8649 57.023 27.0722 56.155 27.5851 54.9162C28.1611 55.366 28.8791 55.6421 29.6603 55.6421C30.7571 55.6421 31.7276 55.1135 32.3431 54.3007C32.9665 55.1056 33.9291 55.6421 35.0259 55.6421C36.0201 55.6421 36.9039 55.2082 37.5272 54.5296C38.0875 55.6421 39.2237 56.4075 40.5493 56.4075C41.4015 56.4075 42.1748 56.084 42.7666 55.5632C43.3584 56.5574 44.4315 57.236 45.6783 57.236C46.2306 57.236 46.7514 57.094 47.209 56.8573C47.643 58.2303 48.9134 59.2324 50.4284 59.2324C50.4284 61.1103 51.9513 62.6253 53.8214 62.6253C53.8372 62.6253 53.845 62.6253 53.8608 62.6175C53.8293 62.8147 53.7977 63.012 53.7977 63.2171C53.7977 64.6848 54.7367 65.9236 56.0386 66.3971C55.7151 66.9178 55.5179 67.5254 55.5179 68.1803C55.5179 69.7032 56.5279 70.9736 57.9008 71.4076C56.8593 72.1178 56.2359 73.396 56.4726 74.8006C56.7015 76.142 57.7588 77.2467 59.0844 77.5228C61.278 77.9805 63.2112 76.3156 63.2112 74.2088C63.2428 72.6859 62.2328 71.4155 60.8519 70.9815Z" fill="url(#paint3_radial_1_473)"/>
<path d="M33.4557 61.4812C35.7131 61.4812 37.543 59.9833 37.543 58.1355C37.543 56.2878 35.7131 54.7899 33.4557 54.7899C31.1983 54.7899 29.3683 56.2878 29.3683 58.1355C29.3683 59.9833 31.1983 61.4812 33.4557 61.4812Z" fill="#B0BEC5"/>
<path d="M33.4557 60.0766C35.7131 60.0766 37.543 58.5787 37.543 56.731C37.543 54.8833 35.7131 53.3854 33.4557 53.3854C31.1983 53.3854 29.3683 54.8833 29.3683 56.731C29.3683 58.5787 31.1983 60.0766 33.4557 60.0766Z" fill="url(#paint4_radial_1_473)"/>
<path opacity="0.2" d="M18.9709 71.8595C19.0725 71.2226 18.1013 70.5381 16.8017 70.3307C15.5021 70.1233 14.3661 70.4715 14.2645 71.1084C14.1628 71.7453 15.134 72.4297 16.4336 72.6372C17.7332 72.8446 18.8692 72.4964 18.9709 71.8595Z" fill="#B0BEC5"/>
<path opacity="0.2" d="M24.1107 75.9956C24.2124 75.3587 23.4714 74.711 22.4558 74.5489C21.4402 74.3868 20.5345 74.7718 20.4329 75.4087C20.3312 76.0456 21.0721 76.6933 22.0878 76.8554C23.1034 77.0175 24.0091 76.6325 24.1107 75.9956Z" fill="#B0BEC5"/>
<path opacity="0.2" d="M11.5009 69.6357C12.6059 68.9208 13.2176 67.9023 12.8673 67.3608C12.517 66.8192 11.3372 66.9598 10.2322 67.6747C9.12722 68.3896 8.51547 69.4081 8.86582 69.9496C9.21616 70.4911 10.3959 70.3506 11.5009 69.6357Z" fill="#B0BEC5"/>
<path opacity="0.2" d="M12.553 76.5745C12.8351 75.9945 12.2632 75.1349 11.2756 74.6546C10.288 74.1742 9.25871 74.255 8.97661 74.835C8.6945 75.4151 9.26641 76.2747 10.254 76.755C11.2416 77.2353 12.2709 77.1545 12.553 76.5745Z" fill="#90A4AE"/>
<path opacity="0.2" d="M17.2026 79.8135C18.1527 79.2628 18.6608 78.3639 18.3373 77.8059C18.0139 77.2479 16.9814 77.242 16.0313 77.7927C15.0811 78.3435 14.5731 79.2423 14.8965 79.8003C15.22 80.3583 16.2524 80.3642 17.2026 79.8135Z" fill="#90A4AE"/>
<path opacity="0.2" d="M56.5231 73.8458C57.8227 73.6384 58.7939 72.9539 58.6922 72.317C58.5906 71.6801 57.4546 71.3319 56.155 71.5394C54.8554 71.7468 53.8842 72.4312 53.9859 73.0681C54.0875 73.705 55.2235 74.0532 56.5231 73.8458Z" fill="#B0BEC5"/>
<path opacity="0.2" d="M47.0233 76.8831C48.3229 76.6757 49.2941 75.9913 49.1924 75.3544C49.0908 74.7175 47.9548 74.3693 46.6552 74.5767C45.3556 74.7841 44.3844 75.4686 44.4861 76.1055C44.5877 76.7424 45.7237 77.0905 47.0233 76.8831Z" fill="#B0BEC5"/>
<path opacity="0.2" d="M59.0185 67.5046C59.3689 66.9631 58.7571 65.9446 57.6521 65.2297C56.5472 64.5148 55.3674 64.3742 55.017 64.9157C54.6667 65.4573 55.2785 66.4758 56.3834 67.1907C57.4884 67.9056 58.6682 68.0461 59.0185 67.5046Z" fill="#B0BEC5"/>
<path opacity="0.2" d="M55.707 79.8066C56.0305 79.2486 55.5224 78.3498 54.5723 77.7991C53.6221 77.2483 52.5897 77.2542 52.2662 77.8122C51.9428 78.3703 52.4508 79.2691 53.401 79.8198C54.3511 80.3706 55.3836 80.3647 55.707 79.8066Z" fill="#90A4AE"/>
<path opacity="0.2" d="M31.7917 79.2163C31.9256 78.5854 31.1632 77.8892 30.089 77.6613C29.0147 77.4335 28.0354 77.7602 27.9015 78.3911C27.7677 79.022 28.5301 79.7182 29.6043 79.946C30.6786 80.1739 31.6579 79.8472 31.7917 79.2163Z" fill="#B0BEC5"/>
<path opacity="0.2" d="M35.4625 75.1494C36.9289 75.0698 38.0893 74.4832 38.0544 73.8392C38.0194 73.1952 36.8023 72.7377 35.3359 72.8173C33.8696 72.8969 32.7091 73.4835 32.7441 74.1275C32.7791 74.7715 33.9961 75.229 35.4625 75.1494Z" fill="#B0BEC5"/>
<path opacity="0.2" d="M29.953 73.3699C30.9595 72.9306 31.5663 72.0953 31.3083 71.5042C31.0503 70.9131 30.0253 70.79 29.0188 71.2293C28.0123 71.6686 27.4055 72.5038 27.6635 73.095C27.9215 73.6861 28.9465 73.8092 29.953 73.3699Z" fill="#B0BEC5"/>
<path opacity="0.2" d="M25.458 69.9131C25.6966 69.3139 25.0628 68.4988 24.0425 68.0926C23.0222 67.6864 22.0017 67.8429 21.7631 68.4421C21.5245 69.0413 22.1582 69.8564 23.1786 70.2626C24.1989 70.6688 25.2194 70.5124 25.458 69.9131Z" fill="#B0BEC5"/>
<path opacity="0.2" d="M20.4929 65.1443C20.686 64.0633 20.3279 63.095 19.693 62.9815C19.0581 62.8681 18.3868 63.6525 18.1937 64.7335C18.0005 65.8146 18.3586 66.7829 18.9935 66.8963C19.6284 67.0098 20.2997 66.2254 20.4929 65.1443Z" fill="#D0D8DC"/>
<path opacity="0.2" d="M32.4975 66.8057C32.5948 66.1681 31.7935 65.5169 30.7078 65.3513C29.6222 65.1857 28.6632 65.5684 28.566 66.206C28.4687 66.8436 29.27 67.4947 30.3556 67.6603C31.4413 67.8259 32.4002 67.4433 32.4975 66.8057Z" fill="#D0D8DC"/>
<path opacity="0.2" d="M51.0484 64.4535C51.9861 63.882 52.4742 62.9723 52.1386 62.4215C51.803 61.8708 50.7707 61.8876 49.8329 62.4591C48.8952 63.0306 48.4071 63.9404 48.7427 64.4911C49.0784 65.0418 50.1107 65.025 51.0484 64.4535Z" fill="#B0BEC5"/>
<path opacity="0.2" d="M15.1081 63.4892C15.3467 62.8899 14.713 62.0749 13.6926 61.6686C12.6723 61.2624 11.6518 61.4189 11.4132 62.0181C11.1746 62.6174 11.8084 63.4325 12.8287 63.8387C13.849 64.2449 14.8696 64.0884 15.1081 63.4892Z" fill="#B0BEC5"/>
<path opacity="0.2" d="M40.9603 79.8374C41.9363 79.3339 42.4877 78.4611 42.192 77.8879C41.8963 77.3147 40.8654 77.2583 39.8894 77.7618C38.9135 78.2653 38.362 79.1381 38.6578 79.7113C38.9535 80.2845 39.9844 80.3409 40.9603 79.8374Z" fill="#90A4AE"/>
<path opacity="0.2" d="M42.0311 66.8391C43.2838 66.436 44.1393 65.6115 43.9417 64.9975C43.7442 64.3836 42.5684 64.2127 41.3157 64.6158C40.0629 65.0189 39.2075 65.8434 39.405 66.4573C39.6026 67.0713 40.7783 67.2422 42.0311 66.8391Z" fill="#D0D8DC"/>
<path opacity="0.2" d="M50.7362 58.081C51.0421 57.5132 50.351 56.5468 49.1924 55.9225C48.0339 55.2981 46.8467 55.2522 46.5407 55.82C46.2347 56.3878 46.9259 57.3542 48.0844 57.9785C49.243 58.6028 50.4302 58.6487 50.7362 58.081Z" fill="#D0D8DC"/>
<path opacity="0.2" d="M17.7958 59.0375C18.5552 58.5114 18.8731 57.6551 18.5057 57.1249C18.1384 56.5948 17.225 56.5915 16.4656 57.1176C15.7062 57.6438 15.3883 58.5001 15.7556 59.0303C16.123 59.5604 17.0363 59.5637 17.7958 59.0375Z" fill="#D0D8DC"/>
<path opacity="0.2" d="M25.3717 64.4138C26.1311 63.8876 26.449 63.0313 26.0816 62.5011C25.7143 61.971 24.8009 61.9677 24.0415 62.4939C23.2821 63.02 22.9642 63.8763 23.3315 64.4065C23.6988 64.9366 24.6122 64.9399 25.3717 64.4138Z" fill="#D0D8DC"/>
<path opacity="0.2" d="M44.639 61.0348C45.3984 60.5087 45.7163 59.6524 45.349 59.1222C44.9817 58.5921 44.0683 58.5888 43.3089 59.115C42.5495 59.6411 42.2316 60.4974 42.5989 61.0276C42.9662 61.5577 43.8796 61.561 44.639 61.0348Z" fill="#D0D8DC"/>
<path opacity="0.2" d="M43.2281 53.9999C43.4662 53.4006 42.9633 52.6382 42.1047 52.2971C41.2462 51.956 40.3571 52.1654 40.119 52.7647C39.8809 53.3641 40.3839 54.1265 41.2424 54.4676C42.101 54.8087 42.99 54.5993 43.2281 53.9999Z" fill="#D0D8DC"/>
<path opacity="0.2" d="M23.3075 58.2566C24.1839 57.9642 24.7288 57.2311 24.5247 56.6193C24.3206 56.0075 23.4446 55.7486 22.5683 56.041C21.6919 56.3334 21.1469 57.0664 21.351 57.6782C21.5552 58.29 22.4311 58.549 23.3075 58.2566Z" fill="#D0D8DC"/>
<path opacity="0.2" d="M28.0612 52.7091C28.1276 52.0676 27.4365 51.4703 26.5176 51.3752C25.5986 51.28 24.7998 51.723 24.7333 52.3645C24.6669 53.006 25.358 53.6033 26.277 53.6984C27.196 53.7936 27.9948 53.3506 28.0612 52.7091Z" fill="#D0D8DC"/>
<path opacity="0.2" d="M50.3144 70.5084C51.566 70.1015 52.4189 69.2744 52.2195 68.661C52.0201 68.0476 50.8438 67.8803 49.5922 68.2872C48.3406 68.6942 47.4877 69.5213 47.6871 70.1346C47.8865 70.748 49.0628 70.9153 50.3144 70.5084Z" fill="#B0BEC5"/>
<path opacity="0.2" d="M44.4103 72.7072C44.7096 72.1359 44.0071 71.1777 42.8413 70.5671C41.6755 69.9564 40.4879 69.9245 40.1886 70.4958C39.8894 71.0671 40.5918 72.0253 41.7576 72.636C42.9234 73.2466 44.111 73.2785 44.4103 72.7072Z" fill="#B0BEC5"/>
<path opacity="0.1" d="M28.5057 59.3906C29.7573 58.9837 30.6102 58.1566 30.4108 57.5432C30.2114 56.9299 29.0351 56.7625 27.7835 57.1694C26.5319 57.5764 25.679 58.4035 25.8784 59.0168C26.0778 59.6302 27.2541 59.7976 28.5057 59.3906Z" fill="#D0D8DC"/>
<path d="M35.2497 16.9859C35.9046 18.6666 35.9046 22.2568 35.9046 22.2568C35.9046 22.2568 29.3712 23.9691 23.3033 23.9691C17.3538 23.9691 10.7493 22.2568 10.7493 22.2568C10.7493 22.2568 10.7493 18.8402 11.3569 16.9859C12.572 13.2931 16.3438 10.0027 23.3033 10.0027C30.2628 10.0027 33.8294 13.3483 35.2497 16.9859Z" fill="url(#paint5_radial_1_473)"/>
<path d="M35.9018 21.736C35.9018 25.5945 32.7456 28.1984 23.3005 28.1984C13.8554 28.1984 10.6992 25.5945 10.6992 21.736C10.6992 17.8775 16.341 14.7528 23.3005 14.7528C30.26 14.7528 35.9018 17.8775 35.9018 21.736Z" fill="url(#paint6_linear_1_473)"/>
<path d="M32.6114 20.1264L34.158 19.5267L33.582 17.8855L32.3274 19.7003L32.6114 20.1264Z" fill="#568B3E"/>
<path d="M31.1753 19.8504L31.341 18.4458L30.5835 17.7278L30.2758 19.874L31.1753 19.8504Z" fill="#568B3E"/>
<path d="M22.9296 18.7772L23.1032 17.3648L22.3457 16.6467L22.322 17.7277L22.3063 18.8009L22.9296 18.7772Z" fill="#568B3E"/>
<path d="M20.4598 18.6193L21.0438 18.8008L21.17 17.4673L20.3099 17.1438L20.4598 18.6193Z" fill="#568B3E"/>
<path d="M16.0963 19.2349L16.3252 18.1065L14.9049 17.7278L15.11 19.7162L16.0963 19.2349Z" fill="#568B3E"/>
<path d="M32.0275 17.1753C31.1359 16.5441 30.4257 17.4673 30.6072 17.9092C30.7177 18.1854 30.978 18.3589 30.8991 18.6825C30.8202 19.006 30.5598 19.0533 30.0943 19.0218C29.5735 18.9902 29.2895 18.5878 29.2184 18.2327C28.9028 16.6467 27.9244 16.2995 27.1905 16.6625C26.5909 16.9623 27.2537 17.5304 26.7092 17.7514C26.078 18.0039 25.715 17.8539 25.4152 17.4989C25.1863 17.2306 25.4862 16.7808 25.0364 16.2285C24.2947 15.3053 22.4956 15.8655 22.3141 16.5046C22.1327 17.1438 22.7323 17.1754 22.756 17.7277C22.7797 18.28 21.7302 18.5799 21.2016 18.3589C20.1127 17.9092 21.2568 17.9565 21.1621 17.2543C21.028 16.2916 19.655 16.5914 19.3394 16.7808C18.503 17.2779 18.8107 17.704 18.6055 18.0118C18.1163 18.7219 17.3825 18.3353 17.0037 18.1143C16.625 17.8934 16.5461 16.9544 15.3783 17.3095C14.5813 17.5541 14.9127 18.1222 15.2362 18.4773C15.3862 18.643 15.3309 18.9034 15.1258 18.9981C14.3604 19.3374 13.7686 18.8245 13.3504 18.5878C12.8533 18.3116 12.1194 18.3511 11.7723 18.7219C11.3619 19.1717 12.6402 19.4242 12.1352 19.8739C11.717 20.2448 11.1568 19.6767 11.0463 19.5189C10.3993 18.6509 9.32617 20.521 10.1941 20.7261C11.0542 20.9313 10.8885 21.6967 10.7307 21.9571C10.4151 22.4857 9.8075 21.2232 10.0048 23.3695C10.1389 24.8766 11.2199 25.6814 12.009 26.2101C13.0584 26.9203 32.4378 27.9539 35.1206 26.3285C35.7913 25.9182 37.6377 23.33 37.1564 22.3832C36.4384 20.9944 36.3437 22.7698 35.886 22.249C34.8918 21.1128 36.4147 20.9944 36.1622 20.3158C35.8939 19.582 35.6651 20.1896 35.3968 19.9134C35.0102 19.511 35.1601 19.2743 35.3495 18.9981C35.5467 18.7061 34.513 17.7671 33.8266 17.7671C33.148 17.7671 33.9528 18.5957 33.5188 18.8166C33.0848 19.0375 32.8008 18.8403 32.3352 18.3905C31.8697 17.9644 32.5562 17.5462 32.0275 17.1753Z" fill="url(#paint7_linear_1_473)"/>
<path d="M35.2497 26.4704C35.9046 28.1511 35.9046 31.7413 35.9046 31.7413C35.9046 31.7413 29.3712 33.4536 23.3033 33.4536C17.3538 33.4536 10.7493 31.7413 10.7493 31.7413C10.7493 31.7413 10.7493 28.3247 11.3569 26.4704C12.572 22.7776 16.3438 19.4872 23.3033 19.4872C30.2628 19.4872 33.8294 22.8328 35.2497 26.4704Z" fill="url(#paint8_radial_1_473)"/>
<path d="M35.9018 31.2205C35.9018 35.079 32.7456 37.6829 23.3005 37.6829C13.8554 37.6829 10.6992 35.079 10.6992 31.2205C10.6992 27.362 16.341 24.2373 23.3005 24.2373C30.26 24.2373 35.9018 27.362 35.9018 31.2205Z" fill="url(#paint9_linear_1_473)"/>
<path d="M19.5177 21.6859C20.1688 21.5644 20.6448 21.1881 20.5809 20.8454C20.517 20.5027 19.9373 20.3233 19.2861 20.4448C18.635 20.5663 18.159 20.9426 18.2229 21.2853C18.2869 21.628 18.8665 21.8073 19.5177 21.6859Z" fill="#FDD836"/>
<path d="M23.0254 21.0313C23.6859 20.9809 24.1998 20.6583 24.1733 20.3106C24.1468 19.963 23.5898 19.7221 22.9294 19.7725C22.2689 19.8229 21.755 20.1456 21.7815 20.4932C21.808 20.8408 22.365 21.0817 23.0254 21.0313Z" fill="#FDD836"/>
<path d="M21.9841 22.2541C22.6446 22.2037 23.1585 21.881 23.1319 21.5334C23.1054 21.1858 22.5485 20.9449 21.888 20.9953C21.2275 21.0457 20.7136 21.3683 20.7401 21.716C20.7667 22.0636 21.3236 22.3045 21.9841 22.2541Z" fill="#F9BF2C"/>
<path d="M26.6955 21.9031C26.7044 21.5546 26.1747 21.2584 25.5125 21.2416C24.8503 21.2248 24.3064 21.4937 24.2975 21.8422C24.2886 22.1907 24.8183 22.4869 25.4805 22.5037C26.1427 22.5206 26.6867 22.2517 26.6955 21.9031Z" fill="#F9BF2C"/>
<path d="M23.5358 23.0688C24.1973 23.0354 24.7194 22.7261 24.7018 22.3779C24.6842 22.0298 24.1337 21.7746 23.4722 21.808C22.8106 21.8413 22.2886 22.1507 22.3062 22.4988C22.3237 22.847 22.8743 23.1022 23.5358 23.0688Z" fill="#FDD836"/>
<path d="M27.9787 20.8155C28.029 20.4705 27.5385 20.1133 26.8831 20.0177C26.2276 19.922 25.6555 20.1242 25.6051 20.4691C25.5548 20.8141 26.0453 21.1713 26.7008 21.2669C27.3562 21.3626 27.9283 21.1605 27.9787 20.8155Z" fill="#FDD836"/>
<path d="M17.8082 23.0126C18.4108 22.7374 18.7818 22.2572 18.6369 21.9401C18.4921 21.6229 17.8862 21.589 17.2837 21.8642C16.6812 22.1394 16.3101 22.6196 16.455 22.9367C16.5999 23.2538 17.2057 23.2878 17.8082 23.0126Z" fill="#F9BF2C"/>
<path d="M25.6046 23.9849C26.267 23.9849 26.8039 23.7023 26.8039 23.3537C26.8039 23.005 26.267 22.7224 25.6046 22.7224C24.9422 22.7224 24.4052 23.005 24.4052 23.3537C24.4052 23.7023 24.9422 23.9849 25.6046 23.9849Z" fill="#F9BF2C"/>
<path d="M29.1843 22.0317C29.2055 21.6837 28.6866 21.3691 28.0254 21.3289C27.3642 21.2888 26.811 21.5384 26.7899 21.8864C26.7688 22.2344 27.2877 22.549 27.9489 22.5892C28.6101 22.6293 29.1632 22.3797 29.1843 22.0317Z" fill="#F9BF2C"/>
<path d="M17.2673 24.5833C17.895 24.3717 18.3135 23.9324 18.2022 23.602C18.0908 23.2717 17.4917 23.1754 16.864 23.3869C16.2363 23.5985 15.8178 24.0378 15.9291 24.3682C16.0405 24.6986 16.6396 24.7949 17.2673 24.5833Z" fill="#F9A823"/>
<path d="M29.7137 23.5493C29.7698 23.2052 29.2853 22.8398 28.6315 22.7331C27.9778 22.6265 27.4023 22.819 27.3461 23.1631C27.29 23.5072 27.7745 23.8726 28.4283 23.9792C29.0821 24.0859 29.6576 23.8934 29.7137 23.5493Z" fill="#F9A823"/>
<path d="M32.4469 24.7029C32.5831 24.3819 32.1991 23.912 31.5893 23.6533C30.9795 23.3945 30.3748 23.445 30.2386 23.7659C30.1025 24.0869 30.4864 24.5568 31.0962 24.8155C31.706 25.0743 32.3107 25.0238 32.4469 24.7029Z" fill="#F9A823"/>
<path d="M31.5804 22.614C31.6846 22.2813 31.2566 21.8511 30.6245 21.6531C29.9924 21.4551 29.3955 21.5643 29.2913 21.897C29.1871 22.2297 29.615 22.6599 30.2472 22.8579C30.8793 23.0559 31.4762 22.9467 31.5804 22.614Z" fill="#F9A823"/>
<path d="M15.6362 22.9815C16.2063 22.6442 16.5246 22.1276 16.3471 21.8275C16.1696 21.5274 15.5635 21.5576 14.9933 21.8949C14.4232 22.2322 14.105 22.7489 14.2825 23.0489C14.46 23.349 15.0661 23.3188 15.6362 22.9815Z" fill="#F9A823"/>
<path d="M14.858 24.8374C15.4282 24.5001 15.7464 23.9834 15.5689 23.6833C15.3914 23.3833 14.7853 23.4134 14.2152 23.7507C13.645 24.088 13.3268 24.6047 13.5043 24.9048C13.6818 25.2048 14.2879 25.1747 14.858 24.8374Z" fill="#F9A823"/>
<path d="M34.087 30.0134L33.9212 28.601L34.6787 28.7588L34.4815 30.692L34.087 30.0134Z" fill="#568B3E"/>
<path d="M13.7923 29.879L12.2457 29.2714L12.8217 27.6381L14.0763 29.4529L13.7923 29.879Z" fill="#568B3E"/>
<path d="M15.2284 29.603L15.0627 28.1906L15.8123 27.4725L16.1279 29.6267L15.2284 29.603Z" fill="#568B3E"/>
<path d="M23.4662 28.522L23.3005 27.1175L24.058 26.3994L24.0738 27.4725L24.0896 28.5457L23.4662 28.522Z" fill="#568B3E"/>
<path d="M25.9359 28.3641L25.3599 28.5456L25.2337 27.2121L26.0938 26.8885L25.9359 28.3641Z" fill="#568B3E"/>
<path d="M30.3074 28.9796L30.0707 27.8592L31.491 27.4725L31.2937 29.461L30.3074 28.9796Z" fill="#568B3E"/>
<path d="M14.3704 26.9201C15.262 26.2888 15.9722 27.2121 15.7907 27.6539C15.6802 27.9301 15.4198 28.1037 15.4987 28.4272C15.5776 28.7428 15.838 28.7981 16.3036 28.7665C16.8244 28.7349 17.1084 28.3325 17.1794 27.9774C17.4951 26.3914 18.4735 26.0442 19.2073 26.4072C19.807 26.7071 19.1442 27.2752 19.6887 27.4961C20.3199 27.7486 20.6829 27.5987 20.9827 27.2436C21.2116 26.9753 20.9117 26.5256 21.3615 25.9732C22.1032 25.05 23.9023 25.6103 24.0837 26.2494C24.2652 26.8885 23.6655 26.9201 23.6419 27.4724C23.6182 28.0248 24.6676 28.3246 25.1963 28.1037C26.2852 27.6539 25.1411 27.7013 25.2358 26.999C25.3699 26.0364 26.7429 26.3362 27.0585 26.5256C27.8949 27.0227 27.5872 27.4488 27.7923 27.7565C28.2816 28.4667 29.0154 28.08 29.3941 27.8591C29.7729 27.6381 29.8518 26.6992 31.0196 27.0542C31.8166 27.2989 31.4851 27.867 31.1616 28.2221C31.0117 28.3878 31.0669 28.6481 31.2721 28.7428C32.0375 29.0821 32.6293 28.5692 33.0475 28.3325C33.5446 28.0563 34.2784 28.0958 34.6256 28.4667C35.0359 28.9164 33.7576 29.1689 34.2626 29.6187C34.6808 29.9896 35.2411 29.4214 35.3516 29.2636C35.9986 28.3956 36.9691 30.0132 36.2037 30.4709C35.2332 31.0548 36.5825 31.1258 36.5825 31.4256C36.5904 33.9822 35.4383 35.2447 34.3889 35.9549C33.3394 36.665 13.9601 37.6987 11.2773 36.0732C10.1252 35.371 9.39928 32.1121 10.141 31.4651C10.8748 30.8181 9.99108 30.7471 10.2436 30.0606C10.5119 29.3267 10.7407 29.9343 11.009 29.6581C11.3956 29.2557 11.2457 29.019 11.0563 28.7428C10.859 28.4509 11.8927 27.5119 12.5792 27.5119C13.2578 27.5119 12.453 28.3404 12.8869 28.5613C13.3209 28.7823 13.605 28.585 14.0705 28.1353C14.5282 27.7092 13.8496 27.291 14.3704 26.9201Z" fill="url(#paint10_linear_1_473)"/>
<path opacity="0.5" d="M34.3789 35.9707C33.29 36.673 14.5419 37.8724 11.2673 36.0891C9.89432 35.3395 9.83119 32.1122 9.83119 32.1122L10.423 30.9681C10.423 30.9681 11.2594 32.7198 11.9301 32.9644C12.6008 33.209 11.1884 29.0112 11.1884 29.0112C11.1884 29.0112 13.595 32.4673 14.5498 32.562C15.5046 32.6567 15.3231 28.7666 15.3231 28.7666C15.3231 28.7666 16.7276 34.0533 17.5482 34.1007C18.3767 34.148 18.211 28.3247 18.8975 27.725C19.5761 27.1254 20.886 34.9292 21.7145 35.3237C22.543 35.7104 22.3221 28.5536 23.1348 27.725C24.0659 26.7861 23.332 33.8482 24.7997 34.2427C26.2358 34.6372 25.9202 28.5772 27.5456 28.1985C28.4215 27.9933 27.1827 34.0454 28.4215 34.2427C30.5362 34.582 30.9544 29.4057 32.0985 29.0428C32.8245 28.8139 32.0512 33.8245 32.5325 34.1954C33.1638 34.6767 36.5725 31.6861 36.5725 31.6861C36.5725 31.6861 36.6514 34.5031 34.3789 35.9707Z" fill="url(#paint11_linear_1_473)"/>
<path d="M35.2497 36.8307C35.9046 38.5114 35.9046 42.1017 35.9046 42.1017C35.9046 42.1017 29.3712 43.8139 23.3033 43.8139C17.3538 43.8139 10.7493 42.1017 10.7493 42.1017C10.7493 42.1017 10.7493 38.685 11.3569 36.8307C12.572 33.1379 16.3438 29.8475 23.3033 29.8475C30.2628 29.8475 33.8294 33.1932 35.2497 36.8307Z" fill="url(#paint12_radial_1_473)"/>
<path d="M35.9018 41.5731C35.9018 45.4316 32.3747 43.9876 22.9296 43.9876C13.4845 43.9876 10.6992 45.4316 10.6992 41.5731C10.6992 37.7145 16.341 34.5898 23.3005 34.5898C30.26 34.5898 35.9018 37.7224 35.9018 41.5731Z" fill="url(#paint13_linear_1_473)"/>
<path d="M32.6114 39.9791L34.158 39.3795L33.582 37.7461L32.3274 39.5531L32.6114 39.9791Z" fill="#568B3E"/>
<path d="M31.1753 39.7109L31.341 38.2985L30.5835 37.5804L30.2758 39.7267L31.1753 39.7109Z" fill="#568B3E"/>
<path d="M22.9296 38.6299L23.1032 37.2254L22.3457 36.5073L22.322 37.5804L22.3063 38.6536L22.9296 38.6299Z" fill="#568B3E"/>
<path d="M20.4598 38.4719L21.0438 38.6534L21.17 37.3199L20.3099 36.9963L20.4598 38.4719Z" fill="#568B3E"/>
<path d="M16.0963 39.0875L16.3252 37.9592L14.9049 37.5804L15.11 39.5689L16.0963 39.0875Z" fill="#568B3E"/>
<path d="M32.0275 37.028C31.1359 36.3968 30.4257 37.32 30.6072 37.7618C30.7177 38.038 30.9781 38.2116 30.8992 38.5351C30.8203 38.8507 30.5599 38.906 30.0943 38.8744C29.5735 38.8429 29.2895 38.4404 29.2185 38.0854C28.9028 36.4993 27.9244 36.1522 27.1906 36.5151C26.5909 36.815 27.2537 37.3831 26.7092 37.604C26.078 37.8565 25.715 37.7066 25.4152 37.3515C25.1864 37.0832 25.4862 36.6335 25.0364 36.0811C24.2947 35.1579 22.4956 35.7182 22.3142 36.3573C22.1327 36.9964 22.7324 37.028 22.756 37.5804C22.7797 38.1327 21.7303 38.4325 21.2016 38.2116C20.1127 37.7618 21.2568 37.8092 21.1621 37.1069C21.028 36.1443 19.655 36.4441 19.3394 36.6335C18.503 37.1306 18.8107 37.5567 18.6056 37.8644C18.1163 38.5746 17.3825 38.1879 17.0038 37.967C16.625 37.7461 16.5461 36.8071 15.3783 37.1622C14.5813 37.4068 14.9128 37.9749 15.2363 38.33C15.3862 38.4957 15.331 38.7561 15.1258 38.8507C14.3604 39.19 13.7686 38.6772 13.3504 38.4404C12.8533 38.1643 12.1195 38.2037 11.7723 38.5746C11.362 39.0243 12.6403 39.2768 12.1353 39.7266C11.717 40.0975 11.1568 39.5293 11.0463 39.3715C10.3993 38.5036 9.42877 40.1211 10.1942 40.5788C11.1647 41.1627 9.81541 41.2337 9.81541 41.5336C9.80752 44.0901 10.9595 45.3526 12.009 46.0628C13.0585 46.7729 32.4378 47.8066 35.1207 46.1811C36.2727 45.4789 36.9986 42.22 36.2569 41.573C35.5231 40.926 36.4068 40.855 36.1543 40.1685C35.886 39.4347 35.6572 40.0422 35.3889 39.7661C35.0023 39.3636 35.1522 39.1269 35.3416 38.8507C35.5389 38.5588 34.5052 37.6198 33.8187 37.6198C33.1401 37.6198 33.9449 38.4483 33.511 38.6693C33.077 38.8902 32.7929 38.6929 32.3274 38.2432C31.8697 37.8171 32.5562 37.3989 32.0275 37.028Z" fill="url(#paint14_linear_1_473)"/>
<path opacity="0.5" d="M36.6514 44.6899L10.7465 44.54L9.28673 39.7583C9.28673 39.7583 9.91009 39.8924 10.7465 40.2317C11.5829 40.571 11.575 41.723 12.2457 41.9676C12.9164 42.2123 12.2457 38.6615 12.2457 38.6615C12.2457 38.6615 14.4235 42.954 15.3783 43.0487C16.3331 43.1433 15.2599 38.3222 15.2599 38.3222C15.2599 38.3222 16.7276 41.8335 17.5561 41.8887C18.3846 41.944 18.0848 37.904 18.7713 37.3043C19.4499 36.7046 20.8938 42.7251 21.7223 43.1197C22.5509 43.5063 22.2668 38.338 23.0795 37.5094C24.0106 36.5705 23.3399 41.6441 24.8076 42.0387C26.2437 42.4332 25.7466 37.9908 27.372 37.612C28.2479 37.4069 27.1984 41.8414 28.4294 42.0387C30.5441 42.378 31.199 39.3164 32.3431 38.9534C33.0691 38.7246 32.0591 41.6205 32.5483 41.9913C33.1795 42.4726 36.32 39.4426 36.32 39.4426L36.6514 44.6899Z" fill="url(#paint15_linear_1_473)"/>
<path d="M19.0516 12.1782C19.7555 12.1245 20.3033 11.7815 20.2751 11.4122C20.247 11.0428 19.6535 10.787 18.9495 10.8407C18.2456 10.8944 17.6978 11.2374 17.726 11.6067C17.7542 11.9761 18.3477 12.232 19.0516 12.1782Z" fill="#FDD836"/>
<path d="M20.7842 12.9593C21.4447 12.9089 21.9586 12.5862 21.9321 12.2386C21.9055 11.891 21.3486 11.6501 20.6881 11.7005C20.0277 11.7509 19.5137 12.0735 19.5403 12.4212C19.5668 12.7688 20.1237 13.0097 20.7842 12.9593Z" fill="#F9BF2C"/>
<path d="M24.2387 11.5369C24.2482 11.1666 23.6836 10.8519 22.9779 10.8339C22.2721 10.816 21.6924 11.1016 21.6829 11.472C21.6735 11.8423 22.238 12.157 22.9438 12.1749C23.6496 12.1929 24.2293 11.9072 24.2387 11.5369Z" fill="#FDD836"/>
<path d="M27.8861 12.36C27.895 12.0115 27.3653 11.7153 26.7031 11.6985C26.0409 11.6817 25.4969 11.9506 25.4881 12.2991C25.4792 12.6476 26.0089 12.9438 26.6711 12.9606C27.3333 12.9775 27.8773 12.7086 27.8861 12.36Z" fill="#F9BF2C"/>
<path d="M23.5362 13.5295C24.1978 13.4961 24.7198 13.1868 24.7022 12.8386C24.6847 12.4905 24.1341 12.2353 23.4726 12.2687C22.8111 12.302 22.289 12.6114 22.3066 12.9595C22.3242 13.3077 22.8747 13.5629 23.5362 13.5295Z" fill="#FDD836"/>
<path d="M17.8092 13.4725C18.4117 13.1973 18.7827 12.7171 18.6379 12.4C18.493 12.0829 17.8871 12.0489 17.2846 12.3242C16.6821 12.5994 16.3111 13.0796 16.4559 13.3967C16.6008 13.7138 17.2067 13.7478 17.8092 13.4725Z" fill="#F9BF2C"/>
<path d="M17.2677 15.0436C17.8954 14.832 18.314 14.3927 18.2026 14.0624C18.0912 13.732 17.4921 13.6357 16.8644 13.8473C16.2368 14.0588 15.8182 14.4982 15.9295 14.8285C16.0409 15.1589 16.64 15.2552 17.2677 15.0436Z" fill="#F9A823"/>
<path d="M29.7144 14.0084C29.7706 13.6643 29.2861 13.2989 28.6323 13.1922C27.9785 13.0856 27.403 13.2781 27.3469 13.6222C27.2907 13.9663 27.7752 14.3317 28.429 14.4383C29.0828 14.545 29.6583 14.3525 29.7144 14.0084Z" fill="#F9A823"/>
<path d="M31.5814 13.0734C31.6856 12.7408 31.2576 12.3105 30.6255 12.1126C29.9933 11.9146 29.3964 12.0238 29.2922 12.3565C29.188 12.6892 29.616 13.1194 30.2481 13.3174C30.8802 13.5153 31.4771 13.4061 31.5814 13.0734Z" fill="#F9A823"/>
<path d="M15.6364 13.4414C16.2065 13.1041 16.5248 12.5874 16.3473 12.2873C16.1698 11.9873 15.5637 12.0174 14.9935 12.3547C14.4234 12.692 14.1052 13.2087 14.2827 13.5088C14.4602 13.8088 15.0663 13.7787 15.6364 13.4414Z" fill="#F9A823"/>
<path d="M14.8582 15.2972C15.4283 14.9599 15.7466 14.4432 15.5691 14.1432C15.3916 13.8431 14.7855 13.8733 14.2154 14.2106C13.6452 14.5479 13.327 15.0645 13.5045 15.3646C13.682 15.6647 14.2881 15.6345 14.8582 15.2972Z" fill="#F9A823"/>
<path d="M20.6353 31.7072C21.2958 31.6568 21.8097 31.3342 21.7832 30.9865C21.7566 30.6389 21.1997 30.398 20.5392 30.4484C19.8787 30.4988 19.3648 30.8215 19.3914 31.1691C19.4179 31.5167 19.9748 31.7576 20.6353 31.7072Z" fill="#FDD836"/>
<path d="M20.7852 32.9383C21.4457 32.8879 21.9596 32.5652 21.933 32.2176C21.9065 31.87 21.3496 31.6291 20.6891 31.6795C20.0286 31.7299 19.5147 32.0526 19.5412 32.4002C19.5678 32.7478 20.1247 32.9887 20.7852 32.9383Z" fill="#F9BF2C"/>
<path d="M25.4978 31.1058C25.5067 30.7572 24.977 30.4611 24.3148 30.4442C23.6526 30.4274 23.1086 30.6963 23.0998 31.0448C23.0909 31.3934 23.6206 31.6895 24.2828 31.7064C24.945 31.7232 25.4889 31.4543 25.4978 31.1058Z" fill="#FDD836"/>
<path d="M27.8918 32.3339C27.9006 31.9854 27.371 31.6892 26.7088 31.6724C26.0466 31.6556 25.5026 31.9245 25.4937 32.273C25.4849 32.6215 26.0145 32.9177 26.6767 32.9345C27.3389 32.9513 27.8829 32.6824 27.8918 32.3339Z" fill="#F9BF2C"/>
<path d="M23.5358 33.508C24.1973 33.4746 24.7194 33.1653 24.7018 32.8172C24.6842 32.469 24.1337 32.2138 23.4722 32.2472C22.8106 32.2806 22.2886 32.5899 22.3062 32.938C22.3237 33.2862 22.8742 33.5414 23.5358 33.508Z" fill="#FDD836"/>
<path d="M27.9849 31.2493C28.0353 30.9044 27.5447 30.5472 26.8893 30.4515C26.2339 30.3559 25.6617 30.558 25.6114 30.903C25.561 31.2479 26.0516 31.6051 26.707 31.7008C27.3624 31.7964 27.9346 31.5943 27.9849 31.2493Z" fill="#FDD836"/>
<path d="M17.8104 33.4518C18.4129 33.1766 18.7839 32.6964 18.6391 32.3793C18.4942 32.0622 17.8883 32.0282 17.2858 32.3034C16.6833 32.5786 16.3123 33.0588 16.4572 33.3759C16.602 33.6931 17.2079 33.727 17.8104 33.4518Z" fill="#F9BF2C"/>
<path d="M17.2692 35.0222C17.8969 34.8107 18.3155 34.3714 18.2041 34.041C18.0928 33.7106 17.4936 33.6143 16.866 33.8259C16.2383 34.0375 15.8197 34.4768 15.9311 34.8072C16.0424 35.1375 16.6415 35.2338 17.2692 35.0222Z" fill="#F9A823"/>
<path d="M29.7205 33.9831C29.7766 33.639 29.2921 33.2736 28.6383 33.167C27.9845 33.0603 27.409 33.2528 27.3529 33.5969C27.2968 33.941 27.7813 34.3064 28.4351 34.4131C29.0889 34.5197 29.6644 34.3272 29.7205 33.9831Z" fill="#F9A823"/>
<path d="M33.4454 35.1602C33.5726 34.8356 33.1757 34.3765 32.559 34.1348C31.9422 33.8931 31.3391 33.9603 31.2119 34.2849C31.0847 34.6095 31.4815 35.0686 32.0983 35.3103C32.7151 35.552 33.3182 35.4848 33.4454 35.1602Z" fill="#F9A823"/>
<path d="M31.5867 33.0487C31.6909 32.716 31.263 32.2858 30.6308 32.0878C29.9987 31.8898 29.4018 31.999 29.2976 32.3317C29.1934 32.6644 29.6214 33.0946 30.2535 33.2926C30.8856 33.4906 31.4825 33.3814 31.5867 33.0487Z" fill="#F9A823"/>
<path d="M15.64 33.4201C16.2101 33.0828 16.5284 32.5662 16.3508 32.2661C16.1733 31.966 15.5672 31.9962 14.9971 32.3335C14.427 32.6708 14.1087 33.1875 14.2862 33.4875C14.4638 33.7876 15.0698 33.7574 15.64 33.4201Z" fill="#F9A823"/>
<path d="M14.5559 35.6706C15.1261 35.3333 15.4443 34.8166 15.2668 34.5166C15.0893 34.2165 14.4832 34.2467 13.9131 34.584C13.3429 34.9213 13.0247 35.438 13.2022 35.738C13.3797 36.0381 13.9858 36.0079 14.5559 35.6706Z" fill="#F9A823"/>
<path d="M89.1477 55.6736C88.9347 53.8982 87.2224 54.0639 87.1041 54.0955C86.8121 53.4169 85.8968 53.338 85.1156 53.338C84.7448 53.338 84.3029 53.4485 83.9005 53.6379C83.4665 53.843 82.9773 53.843 82.5433 53.6379C82.1409 53.4485 81.699 53.338 81.3281 53.338C80.9573 53.338 80.5154 53.4485 80.113 53.6379C79.679 53.843 79.1898 53.843 78.7558 53.6379C78.3534 53.4485 77.9115 53.338 77.5406 53.338C77.1698 53.338 76.7279 53.4485 76.3255 53.6379C75.8915 53.843 75.4023 53.843 74.9683 53.6379C74.5659 53.4485 74.124 53.338 73.7531 53.338C73.3823 53.338 72.9404 53.4485 72.538 53.6379C72.104 53.843 71.6148 53.843 71.1808 53.6379C70.7784 53.4485 70.3365 53.338 69.9656 53.338C69.1766 53.338 68.1034 53.4485 67.8115 54.135C67.6852 54.1034 66.3912 54.4032 65.9808 55.5316C65.468 56.2181 65.1602 57.0703 65.1602 58.0014V74.619C65.1602 76.9073 67.0145 78.7616 69.3028 78.7616H85.6995C87.9878 78.7616 89.8421 76.9073 89.8421 74.619V57.9856C89.8579 57.1334 89.5975 56.3364 89.1477 55.6736Z" fill="url(#paint16_linear_1_473)"/>
<g opacity="0.2">
<path opacity="0.2" d="M72.6879 61.0708C72.2855 61.1813 71.0546 61.6074 70.6679 61.5522C69.1924 61.3312 67.9851 60.2818 67.5432 59.4611C67.1724 58.7668 68.7978 58.68 68.9241 58.9009C69.6027 60.1319 71.6937 59.2008 72.5932 59.2718C74.1003 59.3901 75.2129 60.3607 72.6879 61.0708Z" fill="#434343"/>
</g>
<path d="M73.7216 60.0608C73.7216 60.0608 73.4217 60.4396 71.5674 60.4238L66.983 56.6994C66.6516 56.4154 67.2986 55.9104 67.701 55.6894L67.9535 55.5553C68.1587 55.4448 68.4112 55.4133 68.64 55.4764L74.5501 57.0387C74.9999 57.1571 75.2208 57.5674 75.0235 57.9146L73.982 59.8083C73.9267 59.9109 73.832 59.9977 73.7216 60.0608Z" fill="#F47C20"/>
<path d="M71.4175 60.4001L68.0877 59.6584C67.9062 59.6189 67.7642 59.5006 67.7089 59.3585L66.7857 56.6994C66.6674 56.3601 67.0777 56.0524 67.488 56.1707L72.8536 57.741C73.1377 57.8278 73.2797 58.0803 73.1771 58.3091L72.3644 60.0135C72.2303 60.3212 71.8121 60.4869 71.4175 60.4001Z" fill="#F37021"/>
<g opacity="0.2">
<path opacity="0.2" d="M73.2166 66.6889C73.5953 66.8388 73.5243 67.4858 75.5127 67.3833C77.5012 67.2807 79.3081 66.752 79.8683 65.7183C80.2392 65.024 78.6137 64.9372 78.4875 65.1581C77.8089 66.3891 75.7179 65.458 74.8184 65.529C73.3034 65.6552 72.6563 66.4758 73.2166 66.6889Z" fill="#434343"/>
</g>
<path d="M74.4396 66.6337L79.1109 65.4659L79.4265 63.7379L78.0851 62.6648C77.9115 62.5227 77.7063 62.4438 77.4854 62.4201L73.9504 62.0887C73.5322 62.2229 72.8299 63.1303 73.0114 63.5327L73.2481 65.9946L74.4396 66.6337Z" fill="#F47C20"/>
<path d="M75.0472 66.6102L78.74 65.829C79.0004 65.7738 79.2134 65.6002 79.3239 65.3556L79.6238 64.677C79.8526 64.1562 79.5054 63.5644 78.9373 63.5171L75.0393 63.1699C74.5738 63.1304 74.1634 63.4855 74.1398 63.951L74.0451 65.758C74.0214 66.3025 74.5185 66.7285 75.0472 66.6102Z" fill="#F37021"/>
<g opacity="0.2">
<path opacity="0.2" d="M82.8037 74.193C83.1824 74.343 83.1114 74.99 85.0999 74.8874C87.0883 74.7848 88.8953 74.2562 89.4555 73.2225C89.8264 72.5281 88.2009 72.4413 88.0746 72.6623C87.396 73.8932 85.305 72.9621 84.4055 73.0331C82.8905 73.1515 82.2513 73.9721 82.8037 74.193Z" fill="#434343"/>
</g>
<path d="M84.0267 74.1377L88.698 72.9698L89.0136 71.2418L87.6722 70.1687C87.4986 70.0266 87.2935 69.9477 87.0725 69.9241L83.0799 70.5316C82.6617 70.6658 81.9594 71.5732 82.1409 71.9756L82.8274 73.4985L84.0267 74.1377Z" fill="#F47C20"/>
<path d="M84.6422 74.1141L88.335 73.3329C88.5954 73.2777 88.8085 73.1041 88.9189 72.8595L89.2188 72.1809C89.4476 71.6601 89.1004 71.0683 88.5323 71.021L84.082 71.3129C83.6164 71.2735 83.2061 71.6286 83.1824 72.0941L83.6322 73.2619C83.6164 73.8064 84.1056 74.2325 84.6422 74.1141Z" fill="#F37021"/>
<g opacity="0.2">
<path opacity="0.2" d="M74.9604 77.3097C74.5816 77.4597 74.6527 78.1067 72.6642 78.0041C70.6758 77.9015 68.8688 77.3729 68.3086 76.3392C67.9377 75.6448 69.5632 75.558 69.6895 75.779C70.368 77.0099 72.4591 76.0788 73.3586 76.1498C74.8736 76.2682 75.5127 77.0888 74.9604 77.3097Z" fill="#434343"/>
</g>
<path d="M73.7374 77.2467L69.0661 76.0789L68.7505 74.3508L70.0919 73.2777C70.2655 73.1357 70.4706 73.0568 70.6916 73.0331L74.6842 73.6407C75.1024 73.7748 75.8047 74.6822 75.6232 75.0847L74.9367 76.6075L73.7374 77.2467Z" fill="#F47C20"/>
<path d="M73.1219 77.2308L69.4291 76.4497C69.1687 76.3944 68.9556 76.2208 68.8452 75.9762L68.5453 75.2976C68.3165 74.7768 68.6637 74.185 69.2318 74.1377L73.6821 74.4297C74.1477 74.3902 74.558 74.7453 74.5816 75.2108L74.1319 76.3786C74.1477 76.9231 73.6584 77.3413 73.1219 77.2308Z" fill="#F37021"/>
<path d="M69.4212 60.6764C69.6027 61.0315 70.1313 61.284 70.1313 61.284L72.1435 60.8894C72.1435 60.8894 72.3644 60.7079 72.4591 60.5975C72.7984 60.1951 71.9383 58.1356 70.8415 58.6327C69.7447 59.1298 69.0977 60.0372 69.4212 60.6764Z" fill="#FCB316"/>
<path d="M70.3347 60.6925C70.7284 60.579 71.0122 60.3649 70.9688 60.2141C70.9254 60.0634 70.5711 60.0331 70.1774 60.1465C69.7838 60.26 69.4999 60.4741 69.5434 60.6249C69.5868 60.7756 69.9411 60.8059 70.3347 60.6925Z" fill="#F78F1E"/>
<path d="M80.326 66.0815C79.6948 65.5134 79.0872 65.8133 78.448 66.1762C78.0693 66.3893 77.6905 66.7601 77.5248 67.2572C77.3591 67.7543 78.8978 69.3719 79.7421 68.5039C80.5864 67.636 80.8626 66.555 80.326 66.0815Z" fill="#FCB316"/>
<path d="M79.8055 66.8436C80.1316 66.5957 80.319 66.2935 80.224 66.1686C80.1291 66.0437 79.7878 66.1434 79.4617 66.3913C79.1356 66.6391 78.9482 66.9413 79.0431 67.0662C79.138 67.1911 79.4793 67.0914 79.8055 66.8436Z" fill="#F78F1E"/>
<path d="M83.4902 77.3414C83.7743 78.1383 84.445 78.1778 85.1788 78.1699C85.6128 78.162 86.1257 78.0279 86.5123 77.6728C86.8989 77.3177 86.3308 75.1636 85.1788 75.5107C84.0189 75.8579 83.2535 76.6628 83.4902 77.3414Z" fill="#FCB316"/>
<path d="M84.3915 77.4883C84.7969 77.429 85.1071 77.2551 85.0843 77.0998C85.0616 76.9446 84.7146 76.8669 84.3093 76.9262C83.9039 76.9855 83.5938 77.1594 83.6165 77.3147C83.6392 77.4699 83.9862 77.5476 84.3915 77.4883Z" fill="#F78F1E"/>
<path d="M65.2865 73.1041C65.5706 73.901 66.2413 73.9405 66.9751 73.9326C67.4091 73.9247 67.922 73.7905 68.3086 73.4355C68.6952 73.0804 68.1271 70.9263 66.9751 71.2734C65.8152 71.6127 65.0498 72.4255 65.2865 73.1041Z" fill="#FCB316"/>
<path d="M66.188 73.2499C66.5933 73.1906 66.9035 73.0167 66.8808 72.8614C66.8581 72.7062 66.511 72.6284 66.1057 72.6878C65.7004 72.7471 65.3902 72.921 65.4129 73.0762C65.4356 73.2315 65.7826 73.3092 66.188 73.2499Z" fill="#F78F1E"/>
<path opacity="0.2" d="M86.0704 59.1296C86.7633 59.1296 87.325 58.8293 87.325 58.4589C87.325 58.0885 86.7633 57.7882 86.0704 57.7882C85.3775 57.7882 84.8158 58.0885 84.8158 58.4589C84.8158 58.8293 85.3775 59.1296 86.0704 59.1296Z" fill="#434343"/>
<path d="M86.0546 58.4195C86.7475 58.4195 87.3092 57.8578 87.3092 57.1649C87.3092 56.472 86.7475 55.9103 86.0546 55.9103C85.3617 55.9103 84.8 56.472 84.8 57.1649C84.8 57.8578 85.3617 58.4195 86.0546 58.4195Z" fill="url(#paint17_radial_1_473)"/>
<path opacity="0.2" d="M69.6973 67.1701C70.3902 67.1701 70.9519 66.8699 70.9519 66.4994C70.9519 66.129 70.3902 65.8287 69.6973 65.8287C69.0044 65.8287 68.4427 66.129 68.4427 66.4994C68.4427 66.8699 69.0044 67.1701 69.6973 67.1701Z" fill="#434343"/>
<path d="M69.6816 66.4521C70.3745 66.4521 70.9362 65.8904 70.9362 65.1975C70.9362 64.5046 70.3745 63.9429 69.6816 63.9429C68.9887 63.9429 68.427 64.5046 68.427 65.1975C68.427 65.8904 68.9887 66.4521 69.6816 66.4521Z" fill="url(#paint18_radial_1_473)"/>
<path opacity="0.2" d="M83.6006 69.0086C84.2935 69.0086 84.8552 68.7083 84.8552 68.3379C84.8552 67.9675 84.2935 67.6672 83.6006 67.6672C82.9077 67.6672 82.346 67.9675 82.346 68.3379C82.346 68.7083 82.9077 69.0086 83.6006 69.0086Z" fill="#434343"/>
<path d="M83.5848 68.2985C84.2777 68.2985 84.8394 67.7368 84.8394 67.0439C84.8394 66.351 84.2777 65.7893 83.5848 65.7893C82.8919 65.7893 82.3302 66.351 82.3302 67.0439C82.3302 67.7368 82.8919 68.2985 83.5848 68.2985Z" fill="url(#paint19_radial_1_473)"/>
<path opacity="0.2" d="M78.9767 77.5306C79.6696 77.5306 80.2314 77.2303 80.2314 76.8599C80.2314 76.4895 79.6696 76.1892 78.9767 76.1892C78.2838 76.1892 77.7221 76.4895 77.7221 76.8599C77.7221 77.2303 78.2838 77.5306 78.9767 77.5306Z" fill="#434343"/>
<path d="M78.9609 76.8205C79.6539 76.8205 80.2156 76.2588 80.2156 75.5659C80.2156 74.873 79.6539 74.3113 78.9609 74.3113C78.268 74.3113 77.7063 74.873 77.7063 75.5659C77.7063 76.2588 78.268 76.8205 78.9609 76.8205Z" fill="url(#paint20_radial_1_473)"/>
<path opacity="0.2" d="M86.2361 63.0591C86.2361 63.5878 85.6127 63.8245 84.0109 63.6509C82.8747 63.5326 82.4723 63.6825 82.4723 63.1538C82.4723 62.6251 82.4328 61.2995 84.0583 61.0865C85.6838 60.8813 86.2361 62.2701 86.2361 63.0591Z" fill="#434343"/>
<path d="M84.1529 62.2544C85.0762 62.2859 86.0388 63.2328 86.0783 63.1697C86.173 63.0276 86.0072 61.6231 85.7626 61.4732L84.1687 60.5263C83.9794 60.4158 83.7347 60.4711 83.6085 60.6605L82.6537 61.9466L82.6932 63.2723C83.1903 63.3985 83.2297 62.2228 84.1529 62.2544Z" fill="#AF5C2B"/>
<path d="M83.8768 63.2882C83.9951 63.3276 84.4765 63.4854 84.7763 63.4618C85.2182 63.4223 85.2734 63.2724 85.7705 63.3118C86.2361 63.3513 86.1098 62.9804 85.7863 62.7911L84.1924 61.8442C84.003 61.7337 83.7584 61.789 83.6322 61.9783L82.6774 63.2645C83.3639 63.517 83.498 63.154 83.8768 63.2882Z" fill="#8B4A22"/>
<path d="M83.9557 61.7178H83.9399C83.8216 61.7178 83.7348 61.6231 83.7348 61.5126V60.7393C83.7348 60.621 83.8294 60.5342 83.9399 60.5342H83.9557C84.074 60.5342 84.1608 60.6289 84.1608 60.7393V61.5126C84.1687 61.6231 84.074 61.7178 83.9557 61.7178Z" fill="#C56E39"/>
<path opacity="0.2" d="M80.3655 60.0451C80.3655 60.5738 79.7421 60.8105 78.1403 60.6369C77.0041 60.5185 76.6017 60.6684 76.6017 60.1398C76.6017 59.6111 76.5622 58.2855 78.1877 58.0724C79.8132 57.8673 80.3655 59.256 80.3655 60.0451Z" fill="#434343"/>
<path d="M78.2824 59.2402C79.2056 59.2718 80.1682 60.2186 80.2077 60.1555C80.3023 60.0135 80.1367 58.609 79.892 58.459L78.2981 57.5122C78.1088 57.4017 77.8642 57.4569 77.7379 57.6463L76.7831 58.9325L76.8226 60.2581C77.3197 60.3843 77.3592 59.2086 78.2824 59.2402Z" fill="#AF5C2B"/>
<path d="M78.0062 60.274C78.1246 60.3135 78.6059 60.4713 78.9057 60.4476C79.3476 60.4081 79.4029 60.2582 79.9 60.2977C80.3655 60.3371 80.2393 59.9663 79.9157 59.7769L78.3218 58.83C78.1325 58.7196 77.8879 58.7748 77.7616 58.9642L76.8068 60.2503C77.5012 60.5028 77.6275 60.1399 78.0062 60.274Z" fill="#8B4A22"/>
<path d="M78.093 58.7036H78.0772C77.9588 58.7036 77.872 58.6089 77.872 58.4985V57.7252C77.872 57.6068 77.9667 57.52 78.0772 57.52H78.093C78.2113 57.52 78.2981 57.6147 78.2981 57.7252V58.4985C78.2981 58.6168 78.2035 58.7036 78.093 58.7036Z" fill="#C56E39"/>
<path opacity="0.2" d="M74.0766 70.3659C74.0766 70.8946 73.4533 71.1313 71.8515 70.9577C70.7152 70.8393 70.3128 70.9892 70.3128 70.4606C70.3128 69.9319 70.2733 68.6063 71.8988 68.3932C73.5243 68.196 74.0766 69.5847 74.0766 70.3659Z" fill="#434343"/>
<path d="M71.9856 69.561C72.9088 69.5926 73.8715 70.5394 73.9109 70.4763C74.0056 70.3343 73.8399 68.9297 73.5953 68.7798L72.0014 67.833C71.812 67.7225 71.5674 67.7777 71.4412 67.9671L70.4864 69.2533L70.5258 70.5789C71.0308 70.7051 71.0624 69.5294 71.9856 69.561Z" fill="#AF5C2B"/>
<path d="M71.7173 70.5948C71.8357 70.6343 72.317 70.7921 72.6169 70.7684C73.0587 70.729 73.114 70.579 73.6111 70.6185C74.0766 70.6579 73.9504 70.2871 73.6269 70.0977L72.033 69.1508C71.8436 69.0404 71.599 69.0956 71.4727 69.285L70.518 70.5711C71.2044 70.8236 71.3386 70.4607 71.7173 70.5948Z" fill="#8B4A22"/>
<path d="M71.7962 69.0323H71.7804C71.6621 69.0323 71.5753 68.9377 71.5753 68.8272V68.0539C71.5753 67.9356 71.67 67.8488 71.7804 67.8488H71.7962C71.9146 67.8488 72.0014 67.9434 72.0014 68.0539V68.8272C72.0014 68.9377 71.9146 69.0323 71.7962 69.0323Z" fill="#C56E39"/>
<path opacity="0.2" d="M84.366 28.2694C84.366 24.6239 79.4739 21.6729 73.4296 21.6729C67.3933 21.6729 62.4932 24.6239 62.4932 28.2694C62.4932 29.5871 63.1403 30.8102 64.245 31.8439C62.3986 33.4693 61.2544 35.6629 61.2544 38.0775C61.2544 43.0959 66.1466 47.1675 72.1908 47.1675C78.2271 47.1675 83.1272 43.0959 83.1272 38.0775C83.1272 36.16 82.4092 34.3846 81.194 32.917C83.1509 31.7255 84.366 30.0843 84.366 28.2694Z" fill="#212121"/>
<path d="M72.6327 47.3252C77.8142 47.3252 82.0146 43.69 82.0146 39.2058C82.0146 34.7215 77.8142 31.0863 72.6327 31.0863C67.4511 31.0863 63.2507 34.7215 63.2507 39.2058C63.2507 43.69 67.4511 47.3252 72.6327 47.3252Z" fill="#1E5F30"/>
<path d="M72.6327 46.4572C77.8142 46.4572 82.0146 42.822 82.0146 38.3377C82.0146 33.8535 77.8142 30.2183 72.6327 30.2183C67.4511 30.2183 63.2507 33.8535 63.2507 38.3377C63.2507 42.822 67.4511 46.4572 72.6327 46.4572Z" fill="#4D803B"/>
<path d="M72.6326 44.8239C76.899 44.8239 80.3576 41.8316 80.3576 38.1405C80.3576 34.4494 76.899 31.4572 72.6326 31.4572C68.3663 31.4572 64.9077 34.4494 64.9077 38.1405C64.9077 41.8316 68.3663 44.8239 72.6326 44.8239Z" fill="#B7CE7A"/>
<path d="M72.6327 42.9142C75.6788 42.9142 78.1482 40.7769 78.1482 38.1404C78.1482 35.5039 75.6788 33.3666 72.6327 33.3666C69.5865 33.3666 67.1171 35.5039 67.1171 38.1404C67.1171 40.7769 69.5865 42.9142 72.6327 42.9142Z" fill="#B3CA62"/>
<path d="M82.4565 9.81312C83.9952 12.3145 82.7563 15.8968 79.6869 17.8142C76.6174 19.7316 72.8773 19.2661 71.3307 16.7648C69.792 14.2634 71.0309 10.6811 74.1003 8.76367C77.1698 6.84625 80.9178 7.3118 82.4565 9.81312Z" fill="#568B3E"/>
<path opacity="0.2" d="M83.4744 36.4678C82.6143 39.0007 77.9273 39.6951 73.0114 38.0065C68.0877 36.3179 64.7973 32.8934 65.6573 30.3605C66.5174 27.8276 71.2045 27.1332 76.1203 28.8218C81.0362 30.5104 84.3345 33.9349 83.4744 36.4678Z" fill="#212121"/>
<path d="M76.507 17.7589C75.1814 12.7563 71.0072 9.5369 67.1803 10.5627C63.3533 11.5885 61.3254 16.4806 62.6589 21.4754C63.9846 26.4781 68.1587 29.6974 71.9856 28.6717C75.8126 27.6459 77.8326 22.7616 76.507 17.7589Z" fill="#1E5F30"/>
<path d="M72.7274 28.4744C68.9004 29.5002 64.7263 26.2808 63.4006 21.2781C62.075 16.2755 64.1029 11.3912 67.922 10.3654C71.741 9.33963 75.9231 12.559 77.2487 17.5617C78.5822 22.5643 76.5543 27.4486 72.7274 28.4744Z" fill="#568B3E"/>
<path d="M72.467 26.833C69.3186 27.6773 65.8783 25.0261 64.7894 20.9072C63.7005 16.7883 65.3654 12.7719 68.5138 11.9197C71.6621 11.0675 75.1025 13.7267 76.1914 17.8456C77.2803 21.9645 75.6153 25.9887 72.467 26.833Z" fill="#CEE298"/>
<path d="M71.8989 24.7028C69.65 25.3103 67.196 23.4166 66.4149 20.4734C65.6337 17.5302 66.8252 14.658 69.074 14.0583C71.3228 13.4586 73.7768 15.3445 74.558 18.2877C75.3392 21.223 74.1477 24.0952 71.8989 24.7028Z" fill="#C4DC72"/>
<path d="M81.7069 9.67899C77.3118 7.83259 72.5301 9.26868 71.0309 12.8826C69.5317 16.4965 71.8831 20.9231 76.2781 22.7695C80.6732 24.6159 85.4549 23.1799 86.9541 19.5659C88.4534 15.952 86.1099 11.5254 81.7069 9.67899Z" fill="#1E5F30"/>
<path d="M87.254 18.8637C85.7548 22.4776 80.981 23.9137 76.578 22.0673C72.1829 20.2209 69.8315 15.7942 71.3307 12.1803C72.8299 8.56641 77.6038 7.13032 82.0067 8.97672C86.4018 10.8231 88.7532 15.2498 87.254 18.8637Z" fill="#568B3E"/>
<path d="M85.9047 18.1219C84.6738 21.0967 80.7363 22.2803 77.1145 20.7574C73.4927 19.2424 71.5595 15.5969 72.7905 12.6222C74.0214 9.6474 77.9588 8.4638 81.5806 9.98669C85.2024 11.5096 87.1435 15.1472 85.9047 18.1219Z" fill="#CEE298"/>
<path d="M84.4371 17.5064C83.4823 19.8184 80.4286 20.7337 77.6196 19.5501C74.8105 18.3744 73.3113 15.5417 74.266 13.2376C75.2208 10.9336 78.2745 10.0104 81.0835 11.1939C83.8926 12.3697 85.3918 15.1945 84.4371 17.5064Z" fill="#C4DC72"/>
<path d="M82.5354 20.2604C77.8484 21.1442 74.6369 24.979 75.3549 28.8296C76.073 32.6802 80.4523 35.0869 85.1314 34.2031C89.8184 33.3194 93.0299 29.4845 92.3119 25.6339C91.5938 21.7833 87.2224 19.3767 82.5354 20.2604Z" fill="#1E5F30"/>
<path d="M92.1778 24.4424C92.8958 28.293 89.6764 32.1279 84.9973 33.0116C80.3103 33.8954 75.9388 31.4887 75.2208 27.6381C74.5027 23.7875 77.7221 19.9526 82.4013 19.0689C87.0804 18.1851 91.4597 20.5918 92.1778 24.4424Z" fill="#4D803B"/>
<path d="M90.647 24.5608C91.2388 27.7328 88.5875 30.8891 84.7369 31.615C80.8784 32.3409 77.2803 30.3604 76.6885 27.1963C76.0967 24.0242 78.7479 20.868 82.5985 20.142C86.4492 19.4082 90.0552 21.3888 90.647 24.5608Z" fill="#B7CE7A"/>
<path d="M89.4161 24.7895C89.9053 27.4013 87.7196 30.0052 84.5475 30.597C81.3755 31.1967 78.4007 29.5633 77.9194 26.9515C77.4302 24.3397 79.6159 21.7358 82.7879 21.144C85.96 20.5443 88.9268 22.1777 89.4161 24.7895Z" fill="#B3CA62"/>
<path opacity="0.2" d="M53.6794 30.9522C59.7194 30.9522 64.6158 28.2249 64.6158 24.8606C64.6158 21.4963 59.7194 18.769 53.6794 18.769C47.6394 18.769 42.743 21.4963 42.743 24.8606C42.743 28.2249 47.6394 30.9522 53.6794 30.9522Z" fill="#212121"/>
<path d="M75.1971 22.8327C70.4075 20.8363 65.4838 21.7516 64.1976 24.8763C62.9115 28.001 65.7521 32.1515 70.5338 34.1478C75.3234 36.1441 80.2471 35.2288 81.5333 32.1041C82.8195 28.9795 79.9789 24.829 75.1971 22.8327Z" fill="#1E5F30"/>
<path d="M81.8331 30.6207C80.547 33.7454 75.6232 34.6607 70.8336 32.6644C66.044 30.6681 63.2113 26.5176 64.4974 23.3929C65.7836 20.2682 70.7074 19.3529 75.497 21.3493C80.2866 23.3456 83.1193 27.4961 81.8331 30.6207Z" fill="#568B3E"/>
<path d="M80.3576 29.8474C79.3003 32.4197 75.2445 33.1694 71.3071 31.5281C67.3696 29.8869 65.034 26.4702 66.0914 23.8979C67.1487 21.3255 71.2045 20.5759 75.1419 22.2172C79.0793 23.8663 81.415 27.2829 80.3576 29.8474Z" fill="#F9EBBB"/>
<path d="M78.9925 29.2793C78.1324 31.3624 74.8578 31.97 71.67 30.6365C68.4822 29.3109 66.5963 26.5413 67.4485 24.466C68.3086 22.3829 71.5832 21.7753 74.771 23.1088C77.9588 24.4424 79.8526 27.2041 78.9925 29.2793Z" fill="#DEE67C"/>
<path d="M82.4565 32.6643C78.0535 33.1457 74.7316 35.8679 75.0472 38.7401C75.3549 41.6123 79.1819 43.5534 83.5848 43.0721C87.9878 42.5907 91.3098 39.8685 90.9941 36.9963C90.6864 34.1241 86.8595 32.183 82.4565 32.6643Z" fill="#1E5F30"/>
<path opacity="0.2" d="M91.1756 37.9511C91.4833 40.8233 88.1693 43.5456 83.7663 44.0269C79.3633 44.5082 75.5364 42.575 75.2287 39.6949C74.9209 36.8228 78.235 34.1005 82.638 33.6192C87.0409 33.1378 90.86 35.0789 91.1756 37.9511Z" fill="#212121"/>
<path d="M90.8363 36.1204C91.1441 38.9926 87.83 41.7149 83.427 42.1962C79.0241 42.6775 75.1971 40.7443 74.8894 37.8643C74.5816 34.9921 77.8957 32.2698 82.2987 31.7885C86.7016 31.3071 90.5286 33.2482 90.8363 36.1204Z" fill="#568B3E"/>
<path d="M89.416 36.152C89.6685 38.5192 86.9384 40.7602 83.3166 41.1547C79.6948 41.5492 76.5464 39.9553 76.286 37.5881C76.0335 35.2209 78.7637 32.98 82.3855 32.5855C86.0073 32.1909 89.1557 33.7848 89.416 36.152Z" fill="#F9EBBB"/>
<path d="M88.1614 36.2941C88.3666 38.2116 86.1572 40.0185 83.2298 40.342C80.2945 40.6656 77.7537 39.3715 77.5406 37.462C77.3355 35.5445 79.5449 33.7376 82.4723 33.4141C85.4076 33.0905 87.9484 34.3767 88.1614 36.2941Z" fill="#DEE67C"/>
<path d="M45.4337 24.7581C42.6009 21.523 42.6562 17.917 42.593 16.8833C42.3721 13.2062 44.3921 12.9537 48.6215 11.2494C54.0423 9.06367 65.5706 8.07734 65.9099 13.1352C66.3754 20.0948 63.4243 24.9712 56.9382 27.5041C52.1091 29.382 47.9981 27.6777 45.4337 24.7581Z" fill="#CCB795"/>
<path d="M43.3269 20.1972C40.9913 15.6996 43.2085 10.4207 48.6294 8.23504C54.0503 6.04934 63.6137 6.93309 65.4917 11.6438C67.3696 16.3545 61.1755 23.748 55.5179 25.1841C49.4816 26.707 45.4337 24.253 43.3269 20.1972Z" fill="url(#paint21_radial_1_473)"/>
<path d="M46.6646 18.343C45.5126 15.455 46.5936 12.3461 49.9155 11.0047C53.2375 9.66328 56.9698 10.5155 58.1218 13.4034C59.2738 16.2914 57.4669 20.0552 54.137 21.3966C50.8151 22.738 47.8088 21.2309 46.6646 18.343Z" fill="url(#paint22_radial_1_473)"/>
<path opacity="0.2" d="M53.6794 48.5956C59.7194 48.5956 64.6158 45.8683 64.6158 42.504C64.6158 39.1398 59.7194 36.4125 53.6794 36.4125C47.6394 36.4125 42.743 39.1398 42.743 42.504C42.743 45.8683 47.6394 48.5956 53.6794 48.5956Z" fill="#212121"/>
<path d="M45.4337 43.0013C42.6009 39.7661 42.6562 36.1601 42.593 35.1264C42.3721 31.4494 44.3921 31.1969 48.6215 29.4925C54.0423 27.3068 65.5706 26.3205 65.9099 31.3784C66.3754 38.3379 63.4243 43.2143 56.9382 45.7472C52.1091 47.6252 47.9981 45.9208 45.4337 43.0013Z" fill="#CCB795"/>
<path d="M43.3269 38.4404C40.9913 33.9427 43.2085 28.6639 48.6294 26.4782C54.0503 24.2925 63.6137 25.1762 65.4917 29.887C67.3696 34.5977 61.1755 41.9912 55.5179 43.4273C49.4816 44.9502 45.4337 42.5041 43.3269 38.4404Z" fill="url(#paint23_radial_1_473)"/>
<path d="M46.6646 36.5861C45.5126 33.6982 46.5936 30.5893 49.9155 29.2479C53.2375 27.9064 56.9698 28.7586 58.1218 31.6466C59.2738 34.5346 57.4669 38.2984 54.137 39.6398C50.8151 40.9812 47.8088 39.4741 46.6646 36.5861Z" fill="url(#paint24_radial_1_473)"/>
<path d="M123.264 28.6484H126.645V45H123.264V34.1401L116.717 45H113.348V28.6484H116.717V39.5308L123.264 28.6484ZM142.873 45H139.503V37.9922H132.934V45H129.564V28.6484H132.934V35.2744H139.503V28.6484H142.873V45ZM161.234 49.0205H158.124V45H148.263V49.0093H145.074L144.894 42.2935H146.129C146.796 41.7394 147.309 40.9271 147.668 39.8564C148.035 38.7783 148.282 37.4456 148.409 35.8584L148.881 28.6484H159.595V42.2935H161.504L161.234 49.0205ZM149.993 42.2935H156.226V31.3774H152.082L151.801 35.6787C151.576 38.5612 150.973 40.7661 149.993 42.2935ZM173.116 37.9136H166.647V42.2935H174.239V45H163.278V28.6484H174.217V31.3774H166.647V35.2744H173.116V37.9136ZM181.55 38.3179H179.607V45H176.238V28.6484H179.607V35.1958H181.146L185.144 28.6484H189.254L184.212 36.3862L189.782 45H185.762L181.55 38.3179ZM203.562 39.5532C203.435 41.3127 202.783 42.6978 201.608 43.7085C200.44 44.7192 198.898 45.2246 196.981 45.2246C194.885 45.2246 193.234 44.5208 192.028 43.1133C190.83 41.6982 190.231 39.7591 190.231 37.2959V36.2964C190.231 34.7241 190.508 33.339 191.062 32.1411C191.617 30.9432 192.406 30.026 193.432 29.3896C194.465 28.7458 195.663 28.4238 197.026 28.4238C198.913 28.4238 200.432 28.9292 201.585 29.9399C202.738 30.9507 203.405 32.3695 203.584 34.1963H200.215C200.133 33.1406 199.837 32.377 199.328 31.9053C198.826 31.4261 198.059 31.1865 197.026 31.1865C195.903 31.1865 195.061 31.5908 194.499 32.3994C193.945 33.2005 193.66 34.4471 193.646 36.1392V37.3745C193.646 39.1414 193.911 40.4329 194.443 41.249C194.982 42.0651 195.828 42.4731 196.981 42.4731C198.022 42.4731 198.797 42.2373 199.306 41.7656C199.822 41.2865 200.118 40.549 200.193 39.5532H203.562ZM123.298 65.9136H116.829V70.2935H124.421V73H113.46V56.6484H124.398V59.3774H116.829V63.2744H123.298V65.9136ZM141.559 77.0205H138.448V73H128.587V77.0093H125.398L125.218 70.2935H126.454C127.12 69.7394 127.633 68.9271 127.992 67.8564C128.359 66.7783 128.606 65.4456 128.733 63.8584L129.205 56.6484H139.919V70.2935H141.828L141.559 77.0205ZM130.317 70.2935H136.55V59.3774H132.406L132.125 63.6787C131.9 66.5612 131.298 68.7661 130.317 70.2935ZM153.014 69.6309H147.106L145.983 73H142.401L148.488 56.6484H151.61L157.73 73H154.148L153.014 69.6309ZM148.016 66.9019H152.104L150.049 60.7812L148.016 66.9019Z" fill="black"/>
<defs>
<linearGradient id="paint0_linear_1_473" x1="9.07399" y1="3.94455" x2="91.3989" y2="86.2694" gradientUnits="userSpaceOnUse">
<stop offset="0.2239" stop-color="#434343"/>
<stop offset="0.5619" stop-color="#323535"/>
<stop offset="0.8997" stop-color="#404141"/>
</linearGradient>
<radialGradient id="paint1_radial_1_473" cx="0" cy="0" r="1" gradientUnits="userSpaceOnUse" gradientTransform="translate(33.0083 49.9871) scale(33.4457 33.4457)">
<stop offset="0.4088" stop-color="white"/>
<stop offset="0.724" stop-color="#ECEFF0"/>
<stop offset="0.9654" stop-color="#D0D8DC"/>
</radialGradient>
<radialGradient id="paint2_radial_1_473" cx="0" cy="0" r="1" gradientUnits="userSpaceOnUse" gradientTransform="translate(32.1674 55.076) scale(30.9342 30.9341)">
<stop offset="0.2277" stop-color="white"/>
<stop offset="0.6304" stop-color="#ECEFF0"/>
<stop offset="0.9654" stop-color="#D0D8DC"/>
</radialGradient>
<radialGradient id="paint3_radial_1_473" cx="0" cy="0" r="1" gradientUnits="userSpaceOnUse" gradientTransform="translate(33.0084 49.9872) scale(33.4457 33.4457)">
<stop offset="0.4088" stop-color="white"/>
<stop offset="0.724" stop-color="#ECEFF0"/>
<stop offset="0.9654" stop-color="#D0D8DC"/>
</radialGradient>
<radialGradient id="paint4_radial_1_473" cx="0" cy="0" r="1" gradientUnits="userSpaceOnUse" gradientTransform="translate(32.2862 55.6907) scale(3.5556 4.06795)">
<stop offset="0.1384" stop-color="#F47C20"/>
<stop offset="0.8823" stop-color="#E45325"/>
</radialGradient>
<radialGradient id="paint5_radial_1_473" cx="0" cy="0" r="1" gradientUnits="userSpaceOnUse" gradientTransform="translate(23.288 12.0101) scale(12.7325 10.3558)">
<stop offset="0.0529" stop-color="#FFCB28"/>
<stop offset="1" stop-color="#F9A01B"/>
</radialGradient>
<linearGradient id="paint6_linear_1_473" x1="23.3001" y1="28.192" x2="23.3001" y2="14.7503" gradientUnits="userSpaceOnUse">
<stop offset="0.0303" stop-color="#F37021"/>
<stop offset="1" stop-color="#F9A01B"/>
</linearGradient>
<linearGradient id="paint7_linear_1_473" x1="23.566" y1="13.0868" x2="23.566" y2="27.2291" gradientUnits="userSpaceOnUse">
<stop stop-color="#BFCA33"/>
<stop offset="0.8669" stop-color="#679F42"/>
</linearGradient>
<radialGradient id="paint8_radial_1_473" cx="0" cy="0" r="1" gradientUnits="userSpaceOnUse" gradientTransform="translate(23.288 21.4958) scale(12.7325 10.3558)">
<stop offset="0.0574" stop-color="#FFCB28"/>
<stop offset="1" stop-color="#F9A01B"/>
</radialGradient>
<linearGradient id="paint9_linear_1_473" x1="23.3001" y1="37.6777" x2="23.3001" y2="24.236" gradientUnits="userSpaceOnUse">
<stop offset="0.0303" stop-color="#F37021"/>
<stop offset="1" stop-color="#F9A01B"/>
</linearGradient>
<linearGradient id="paint10_linear_1_473" x1="23.2021" y1="22.8358" x2="23.2021" y2="36.9781" gradientUnits="userSpaceOnUse">
<stop stop-color="#BFCA33"/>
<stop offset="0.8669" stop-color="#679F42"/>
</linearGradient>
<linearGradient id="paint11_linear_1_473" x1="23.1977" y1="35.5323" x2="23.1977" y2="26.1486" gradientUnits="userSpaceOnUse">
<stop stop-color="#346A34" stop-opacity="0.6"/>
<stop offset="0.9267" stop-color="#679F42" stop-opacity="0"/>
</linearGradient>
<radialGradient id="paint12_radial_1_473" cx="0" cy="0" r="1" gradientUnits="userSpaceOnUse" gradientTransform="translate(23.288 31.8535) scale(12.7325 10.3558)">
<stop offset="0.0603" stop-color="#FFCB28"/>
<stop offset="1" stop-color="#F9A01B"/>
</radialGradient>
<linearGradient id="paint13_linear_1_473" x1="23.3001" y1="44.2553" x2="23.3001" y2="34.5937" gradientUnits="userSpaceOnUse">
<stop offset="0.0303" stop-color="#F37021"/>
<stop offset="1" stop-color="#F9A01B"/>
</linearGradient>
<linearGradient id="paint14_linear_1_473" x1="23.2" y1="32.942" x2="23.2" y2="47.0844" gradientUnits="userSpaceOnUse">
<stop stop-color="#BFCA33"/>
<stop offset="0.8669" stop-color="#679F42"/>
</linearGradient>
<linearGradient id="paint15_linear_1_473" x1="22.9712" y1="43.5123" x2="22.9712" y2="36.0912" gradientUnits="userSpaceOnUse">
<stop stop-color="#346A34" stop-opacity="0.6"/>
<stop offset="0.9267" stop-color="#679F42" stop-opacity="0"/>
</linearGradient>
<linearGradient id="paint16_linear_1_473" x1="77.513" y1="75.7592" x2="77.513" y2="50.3427" gradientUnits="userSpaceOnUse">
<stop stop-color="#8D401E"/>
<stop offset="0.6486" stop-color="#BB5B27"/>
</linearGradient>
<radialGradient id="paint17_radial_1_473" cx="0" cy="0" r="1" gradientUnits="userSpaceOnUse" gradientTransform="translate(85.853 56.9128) scale(1.255 1.255)">
<stop offset="0.2043" stop-color="#8BC249"/>
<stop offset="1" stop-color="#679F42"/>
</radialGradient>
<radialGradient id="paint18_radial_1_473" cx="0" cy="0" r="1" gradientUnits="userSpaceOnUse" gradientTransform="translate(69.4795 64.948) scale(1.255 1.255)">
<stop offset="0.2043" stop-color="#8BC249"/>
<stop offset="1" stop-color="#679F42"/>
</radialGradient>
<radialGradient id="paint19_radial_1_473" cx="0" cy="0" r="1" gradientUnits="userSpaceOnUse" gradientTransform="translate(83.3872 66.7918) scale(1.25501 1.255)">
<stop offset="0.2043" stop-color="#8BC249"/>
<stop offset="1" stop-color="#679F42"/>
</radialGradient>
<radialGradient id="paint20_radial_1_473" cx="0" cy="0" r="1" gradientUnits="userSpaceOnUse" gradientTransform="translate(78.7581 75.3137) scale(1.25501)">
<stop offset="0.2043" stop-color="#8BC249"/>
<stop offset="1" stop-color="#679F42"/>
</radialGradient>
<radialGradient id="paint21_radial_1_473" cx="0" cy="0" r="1" gradientUnits="userSpaceOnUse" gradientTransform="translate(49.1066 11.7505) scale(20.8058 20.9368)">
<stop offset="0.4485" stop-color="#FFF3E1"/>
<stop offset="1" stop-color="#FFE0B2"/>
</radialGradient>
<radialGradient id="paint22_radial_1_473" cx="0" cy="0" r="1" gradientUnits="userSpaceOnUse" gradientTransform="translate(52.4498 16.6263) scale(5.92523 5.96256)">
<stop stop-color="#F36E21"/>
<stop offset="1" stop-color="#FAAA43"/>
</radialGradient>
<radialGradient id="paint23_radial_1_473" cx="0" cy="0" r="1" gradientUnits="userSpaceOnUse" gradientTransform="translate(49.1066 29.9944) scale(20.8058 20.9368)">
<stop offset="0.4485" stop-color="#FFF3E1"/>
<stop offset="1" stop-color="#FFE0B2"/>
</radialGradient>
<radialGradient id="paint24_radial_1_473" cx="0" cy="0" r="1" gradientUnits="userSpaceOnUse" gradientTransform="translate(52.4498 34.8702) scale(5.92523 5.96255)">
<stop stop-color="#F36E21"/>
<stop offset="1" stop-color="#FAAA43"/>
</radialGradient>
</defs>
</svg>
