<svg width="16" height="9" viewBox="0 0 16 9" fill="none" xmlns="http://www.w3.org/2000/svg">
<g clip-path="url(#clip0_1_715)">
<path d="M13.2771 5.16086C13.0185 4.84586 13.0925 4.70571 13.2771 4.42414C13.2805 4.42093 15.4159 1.57564 15.6359 0.610714L15.6372 0.610071C15.7465 0.258428 15.6372 0 15.1085 0H13.3591C12.9138 0 12.7084 0.221786 12.5984 0.469929C12.5984 0.469929 11.7077 2.52579 10.4477 3.85843C10.041 4.2435 9.85301 4.36693 9.631 4.36693C9.52166 4.36693 9.35166 4.2435 9.35166 3.89186V0.610071C9.35166 0.188357 9.22699 0 8.85831 0H6.10754C5.8282 0 5.6622 0.196714 5.6622 0.379929C5.6622 0.779786 6.29222 0.871714 6.35755 1.99671V4.43764C6.35755 4.9725 6.25688 5.07086 6.03354 5.07086C5.43886 5.07086 3.99547 3.00664 3.14011 0.644143C2.96744 0.185786 2.79876 0.000642811 2.35008 0.000642811H0.600021C0.10067 0.000642811 0 0.222428 0 0.470571C0 0.909 0.594687 3.08893 2.76543 5.96893C4.21215 7.93479 6.24955 9 8.10295 9C9.21699 9 9.35299 8.76343 9.35299 8.3565C9.35299 6.47807 9.25232 6.30064 9.81034 6.30064C10.069 6.30064 10.5144 6.42407 11.5544 7.37229C12.7431 8.49664 12.9384 9 13.6038 9H15.3532C15.8519 9 16.1046 8.76343 15.9592 8.29671C15.6265 7.31507 13.3785 5.29586 13.2771 5.16086Z" fill="black"/>
</g>
<defs>
<clipPath id="clip0_1_715">
<rect width="16" height="9" fill="white"/>
</clipPath>
</defs>
</svg>
