<svg width="58" height="59" viewBox="0 0 58 59" fill="none" xmlns="http://www.w3.org/2000/svg">
<g clip-path="url(#clip0_1_447)">
<path d="M51.3201 26.15C51.0201 26.06 50.7101 26.1 50.4301 26.26C50.1601 26.42 49.9601 26.69 49.8801 27.01C49.7301 27.64 50.1201 28.28 50.7601 28.45C55.3801 29.7 55.3801 31.2 55.3801 32.19C55.3801 33.01 54.1001 34.01 51.9301 34.9C51.9001 34.78 51.8701 34.66 51.8401 34.54C51.6001 33.55 51.3701 32.61 49.4901 31.87C49.2001 31.76 48.8901 31.77 48.6101 31.91C48.3201 32.05 48.1001 32.32 48.0001 32.64C47.8301 33.23 48.1601 33.88 48.7601 34.15C49.7801 34.6 49.7501 35.01 49.7201 35.45C49.7201 35.52 49.7101 35.6 49.7101 35.67C45.5701 36.9 40.0201 37.57 34.0501 37.57C28.1201 37.57 22.6001 36.9 18.4701 35.69C18.9501 35.04 21.0301 33.82 25.7901 33.06C26.4301 32.96 26.8901 32.35 26.8001 31.71C26.7601 31.39 26.5901 31.11 26.3301 30.92C26.0801 30.73 25.7601 30.66 25.4501 30.7C22.9801 31.1 20.8501 31.66 19.3001 32.35C17.6601 33.07 16.6201 33.93 16.2001 34.9C14.0201 34.02 12.7301 33.01 12.7301 32.19C12.7301 31.94 12.9401 30.61 17.0301 29.15C19.9401 28.11 24.0201 27.36 28.5001 27.02C29.1501 26.97 29.6501 26.4 29.6101 25.76C29.5901 25.44 29.4501 25.15 29.2101 24.94C28.9701 24.73 28.6601 24.63 28.3501 24.65C23.6501 25 19.3501 25.81 16.2401 26.92C11.3801 28.65 10.3601 30.74 10.3601 32.2C10.3601 34.21 10.7301 36.19 11.4601 38.06L13.0201 42.06C13.1401 42.35 13.3601 42.59 13.6501 42.72C13.9401 42.85 14.2601 42.85 14.5601 42.74C14.8501 42.62 15.0901 42.4 15.2201 42.11C15.3501 41.82 15.3501 41.5 15.2401 41.2L13.6801 37.2C13.5501 36.86 13.4301 36.51 13.3201 36.15C14.4901 36.83 15.9901 37.44 17.8101 37.97C22.1701 39.24 27.9301 39.94 34.0501 39.94C40.1701 39.94 45.9401 39.24 50.2901 37.97C52.1101 37.44 53.6101 36.83 54.7801 36.15C54.6701 36.5 54.5501 36.85 54.4201 37.2L51.2001 45.48C51.0101 45.96 50.7801 46.42 50.5101 46.85C50.1601 47.41 50.2701 48.13 50.7601 48.53C50.9701 48.7 51.2301 48.78 51.4901 48.78C51.5501 48.78 51.6101 48.78 51.6701 48.77C51.9801 48.72 52.2401 48.55 52.4101 48.29C52.8101 47.68 53.1501 47.02 53.4101 46.34L56.6301 38.06C57.3601 36.18 57.7301 34.21 57.7301 32.2C57.7501 28.54 53.7201 26.84 51.3201 26.15Z" fill="#F37321"/>
<path d="M31.0701 27.2L28.7901 31.76C28.5001 32.34 28.7401 33.06 29.3201 33.35C29.9101 33.64 30.6201 33.4 30.9101 32.82L33.1901 28.26C34.9901 24.68 38.0001 21.85 41.6701 20.26C41.6801 20.3 41.7001 20.34 41.7101 20.38C39.1601 22.56 36.8501 25.54 35.1901 28.78L32.8601 33.31C32.7101 33.59 32.6901 33.91 32.7801 34.22C32.8801 34.52 33.0901 34.77 33.3701 34.91C33.6501 35.05 33.9701 35.08 34.2801 34.99C34.5801 34.89 34.8301 34.68 34.9701 34.4L37.3001 29.87C38.8001 26.93 40.8901 24.23 43.1801 22.25C43.2401 22.29 43.3001 22.33 43.3601 22.37C43.4201 22.4 43.4701 22.44 43.5301 22.47L42.4801 24.43C41.4601 26.34 40.4001 28.32 39.3201 30.37L37.6301 33.55C37.3201 34.13 37.5501 34.85 38.1201 35.16C38.7001 35.47 39.4201 35.24 39.7301 34.67L41.4201 31.49C42.5001 29.44 43.5501 27.47 44.5701 25.57L45.5201 23.79C45.5301 26.64 44.8201 29.45 43.4501 31.96L42.5801 33.55C42.4301 33.83 42.3901 34.15 42.4801 34.45C42.5701 34.75 42.7701 35.01 43.0501 35.16C43.2301 35.26 43.4201 35.31 43.6201 35.31C43.7301 35.31 43.8501 35.29 43.9601 35.26C44.2601 35.17 44.5201 34.97 44.6701 34.69L45.5401 33.1C47.3901 29.72 48.1801 25.92 47.8201 22.08C48.1801 21.8 48.4801 21.45 48.7201 21.06L56.2001 8.84999C56.7501 7.95999 56.9101 6.89999 56.6701 5.88999C56.4301 4.87999 55.7901 3.99999 54.9001 3.45999C54.0101 2.90999 52.9501 2.74999 51.9401 2.98999C50.9201 3.23999 50.0601 3.85999 49.5201 4.75999L42.0601 16.97C41.9201 17.2 41.8001 17.45 41.7101 17.7C37.0701 19.42 33.3001 22.79 31.0701 27.2ZM53.1001 5.26999C53.3001 5.29999 53.4901 5.36999 53.6701 5.47999C53.8401 5.58999 53.9901 5.71999 54.1101 5.88999C54.2301 6.05999 54.3201 6.23999 54.3601 6.43999C54.4101 6.63999 54.4201 6.83999 54.3801 7.03999C54.3501 7.23998 54.2801 7.42999 54.1701 7.60999L46.7101 19.82C46.6001 19.99 46.4701 20.14 46.3001 20.26C46.1301 20.38 45.9501 20.47 45.7501 20.51C45.5501 20.56 45.3501 20.57 45.1501 20.53C44.9501 20.5 44.7601 20.43 44.5801 20.32C44.4101 20.21 44.2601 20.08 44.1401 19.91C44.0201 19.75 43.9301 19.56 43.8901 19.36C43.8401 19.16 43.8301 18.96 43.8701 18.76C43.9001 18.56 43.9701 18.37 44.0801 18.19L51.5401 5.99999C51.6501 5.82999 51.7801 5.67999 51.9501 5.55999C52.1101 5.43999 52.3001 5.34999 52.5001 5.30999C52.6201 5.27999 52.7401 5.26999 52.8601 5.26999C52.9401 5.24999 53.0201 5.25999 53.1001 5.26999Z" fill="#F37321"/>
<path d="M1.76006 45.48C1.91006 45.55 2.07006 45.58 2.24006 45.58C2.41006 45.58 2.57006 45.54 2.73006 45.47C3.27006 45.22 3.57006 44.58 3.44006 43.91C3.40006 43.69 3.38006 43.47 3.38006 43.25V42.11C3.38006 32.42 4.89006 22.84 7.88006 13.62H27.8901C27.1701 15.92 26.5201 18.28 25.9701 20.63C25.9001 20.94 25.9501 21.25 26.1201 21.52C26.2901 21.79 26.5501 21.98 26.8701 22.05C27.5101 22.19 28.1401 21.79 28.2901 21.15C28.8801 18.63 29.5801 16.1 30.3801 13.62H32.2001C33.2701 13.62 34.2701 13.2 35.0301 12.45C35.7901 11.7 36.2001 10.69 36.2001 9.62V6.81C36.2001 6.65 36.1701 6.5 36.1101 6.35C36.0501 6.2 35.9601 6.08 35.8501 5.97C35.7401 5.86 35.6101 5.77 35.4701 5.71C35.3301 5.65 35.1701 5.62 35.0101 5.62H30.5801C30.6301 4.78 30.9901 4 31.5901 3.4C32.2501 2.74 33.1301 2.37 34.0601 2.37H34.2301C34.9901 2.37 35.7501 2.63 36.3501 3.09C36.9601 3.55 37.4001 4.21 37.6001 4.95L38.6201 8.43C38.8601 9.3 39.0901 10.21 39.3201 11.15C39.4701 11.78 40.1101 12.18 40.7501 12.04C41.0601 11.97 41.3301 11.78 41.4901 11.51C41.6601 11.24 41.7101 10.92 41.6301 10.62C41.4101 9.68 41.1601 8.74 40.9101 7.81L39.9001 4.33C39.5601 3.09 38.8101 1.99 37.8001 1.21C36.7801 0.43 35.5101 0 34.2301 0H8.75006C7.18006 0 5.71006 0.61 4.60006 1.72C3.49006 2.83 2.88006 4.31 2.88006 5.88V9.63C2.88006 10.48 3.16006 11.32 3.66006 12C4.12006 12.62 4.74006 13.09 5.46006 13.37C2.50006 22.68 1.00006 32.35 1.00006 42.12V43.26C1.00006 43.78 1.07006 44.31 1.21006 44.82C1.29006 45.12 1.48006 45.35 1.76006 45.48ZM33.8101 9.62C33.8101 10.05 33.6401 10.47 33.3301 10.77C32.7201 11.39 31.6401 11.38 31.0301 10.77C30.7201 10.46 30.5501 10.06 30.5501 9.62V8H33.8001V9.62H33.8101ZM28.5301 11.25H6.88006C6.45006 11.25 6.04006 11.08 5.73006 10.77C5.42006 10.46 5.25006 10.05 5.25006 9.62V5.88C5.25006 4.95 5.62006 4.07 6.28006 3.41C6.94006 2.75 7.82006 2.38 8.75006 2.38H29.3501C28.6001 3.39 28.1901 4.61 28.1901 5.88V9.63C28.1901 10.19 28.3101 10.74 28.5301 11.25Z" fill="#F37321"/>
<path d="M48.0901 49.17C47.7001 48.82 47.2501 48.55 46.7601 48.38C46.2601 48.21 45.7501 48.15 45.2201 48.2L44.4901 48.27C43.8901 47.33 43.0601 46.55 42.0901 46.01C41.0701 45.44 39.9201 45.14 38.7501 45.13H11.5601C10.3901 45.13 9.24007 45.43 8.22007 46C7.25007 46.54 6.42007 47.33 5.82007 48.26L5.10007 48.2C4.59007 48.15 4.09007 48.21 3.60007 48.37C3.11007 48.53 2.67007 48.78 2.29007 49.11C1.91007 49.44 1.60007 49.85 1.37007 50.31C1.15007 50.77 1.03007 51.26 1.00007 51.77C0.98007 52.28 1.06007 52.78 1.24007 53.26C1.42007 53.74 1.69007 54.17 2.04007 54.54C2.39007 54.91 2.81007 55.2 3.28007 55.4C3.85007 55.65 4.48007 55.75 5.09007 55.69L5.82007 55.62C6.42007 56.56 7.25007 57.33 8.22007 57.88C9.24007 58.45 10.3901 58.76 11.5501 58.76H38.7401C38.7501 58.76 38.7601 58.76 38.7601 58.76C39.6501 58.76 40.5201 58.59 41.3501 58.25C42.1801 57.91 42.9201 57.41 43.5601 56.77C43.9101 56.42 44.2201 56.04 44.4801 55.63L45.2101 55.7C46.0801 55.78 46.9501 55.55 47.6701 55.06C48.3001 54.63 48.7701 54.03 49.0501 53.32C49.3201 52.61 49.3801 51.85 49.2001 51.11C49.0401 50.34 48.6501 49.68 48.0901 49.17ZM45.4201 50.56C45.6101 50.54 45.8001 50.56 45.9801 50.62C46.1601 50.68 46.3201 50.77 46.4601 50.89C46.6001 51.01 46.7101 51.16 46.8001 51.33C46.8801 51.5 46.9301 51.68 46.9401 51.87C46.9501 52.06 46.9201 52.24 46.8601 52.42C46.7901 52.6 46.7001 52.75 46.5701 52.89C46.4401 53.02 46.2901 53.13 46.1201 53.21C45.9101 53.3 45.6901 53.34 45.4501 53.32H45.4401C45.6101 52.41 45.6101 51.47 45.4201 50.56ZM4.75007 50.56C4.79007 50.56 4.84007 50.56 4.88007 50.57L10.5201 51.08C10.7401 51.1 10.9401 51.2 11.0801 51.36C11.2301 51.52 11.3101 51.73 11.3101 51.94C11.3101 52.15 11.2301 52.36 11.0801 52.52C10.9301 52.68 10.7401 52.78 10.5201 52.8L4.88007 53.31C4.69007 53.33 4.51007 53.31 4.33007 53.25C4.15007 53.19 3.99007 53.1 3.85007 52.98C3.71007 52.86 3.60007 52.71 3.52007 52.54C3.43007 52.37 3.39007 52.19 3.38007 52C3.37007 51.81 3.40007 51.63 3.47007 51.45C3.53007 51.28 3.63007 51.12 3.76007 50.98C3.89007 50.84 4.04007 50.74 4.22007 50.66C4.38007 50.59 4.57007 50.56 4.75007 50.56ZM10.7401 55.17C11.5501 55.1 12.2901 54.73 12.8401 54.13C13.3901 53.53 13.6901 52.76 13.6901 51.94C13.6901 51.12 13.3901 50.35 12.8401 49.76C12.2901 49.16 11.5501 48.79 10.7401 48.72L8.72007 48.54C9.17007 48.16 9.70007 47.88 10.2701 47.71C10.9701 47.5 11.7101 47.46 12.4201 47.6C13.1301 47.74 13.8101 48.06 14.3701 48.52C14.9301 48.98 15.3801 49.58 15.6501 50.25C15.9301 50.92 16.0401 51.66 15.9701 52.38C15.9001 53.1 15.6501 53.81 15.2401 54.41C14.8401 55.01 14.2801 55.51 13.6401 55.86C13.0001 56.21 12.2801 56.38 11.5501 56.38C10.9401 56.38 10.3501 56.25 9.79007 56.01C9.40007 55.84 9.04007 55.62 8.71007 55.35L10.7401 55.17ZM17.8401 54.58C18.1901 53.74 18.3701 52.85 18.3701 51.94C18.3701 51.03 18.1901 50.14 17.8401 49.3C17.5601 48.64 17.1901 48.04 16.7301 47.5H38.7501C39.6301 47.5 40.4801 47.76 41.2201 48.25C41.9501 48.74 42.5201 49.43 42.8501 50.24C43.1901 51.05 43.2701 51.94 43.1001 52.8C42.9301 53.66 42.5101 54.45 41.8901 55.07C41.4701 55.49 40.9901 55.81 40.4501 56.03C39.9101 56.25 39.3501 56.36 38.7701 56.36H16.7301C17.1901 55.84 17.5601 55.24 17.8401 54.58Z" fill="#F37321"/>
</g>
<defs>
<clipPath id="clip0_1_447">
<rect width="58" height="59" fill="white"/>
</clipPath>
</defs>
</svg>
