<svg width="60" height="56" viewBox="0 0 60 56" fill="none" xmlns="http://www.w3.org/2000/svg">
<g clip-path="url(#clip0_1_456)">
<path d="M32.4515 5.65518C32.394 5.47722 32.2877 5.31895 32.1447 5.19837C32.0017 5.0778 31.8278 4.99973 31.6426 4.97306L28.3613 4.49993L26.8953 1.55444C26.8124 1.3879 26.6847 1.24778 26.5265 1.14983C26.3684 1.05189 26.186 1 26 1C25.814 1 25.6317 1.05189 25.4735 1.14983C25.3154 1.24778 25.1877 1.3879 25.1048 1.55444L23.6388 4.49993L20.3574 4.97281C20.1723 4.99949 19.9983 5.07756 19.8553 5.19815C19.7124 5.31874 19.6061 5.47701 19.5485 5.65499C19.491 5.83297 19.4845 6.02351 19.5299 6.20498C19.5752 6.38644 19.6705 6.55156 19.805 6.68156L22.175 8.97231L21.616 12.2046C21.5843 12.3882 21.6045 12.5771 21.6744 12.75C21.7443 12.9228 21.8611 13.0726 22.0117 13.1825C22.1622 13.2925 22.3405 13.3581 22.5264 13.3721C22.7122 13.3861 22.8983 13.3478 23.0636 13.2617L26.0011 11.7304L28.9386 13.2617C29.1039 13.3478 29.29 13.3861 29.4759 13.3721C29.6618 13.3581 29.8401 13.2925 29.9906 13.1825C30.1412 13.0726 30.258 12.9228 30.3279 12.75C30.3978 12.5771 30.418 12.3882 30.3863 12.2046L29.825 8.97231L32.195 6.68181C32.3295 6.5518 32.4249 6.38668 32.4702 6.2052C32.5155 6.02373 32.5091 5.83317 32.4515 5.65518ZM28.055 7.90218C27.9378 8.01552 27.85 8.1558 27.7994 8.31082C27.7488 8.46583 27.7369 8.63087 27.7646 8.79156L28.0694 10.5541L26.4624 9.71656C26.3196 9.64207 26.1609 9.60318 25.9999 9.60318C25.8388 9.60318 25.6802 9.64207 25.5374 9.71656L23.9304 10.5541L24.2351 8.79156C24.2629 8.63087 24.251 8.46583 24.2004 8.31082C24.1498 8.1558 24.062 8.01552 23.9448 7.90218L22.6614 6.66156L24.4428 6.40493C24.6029 6.38186 24.755 6.32028 24.8861 6.22549C25.0172 6.13069 25.1233 6.00551 25.1954 5.86068L26 4.24443L26.8044 5.86068C26.8765 6.00551 26.9826 6.13069 27.1137 6.22549C27.2448 6.32028 27.3969 6.38186 27.557 6.40493L29.3384 6.66156L28.055 7.90218Z" fill="#F37321"/>
<path d="M45.9515 9.65518C45.894 9.47721 45.7877 9.31895 45.6447 9.19837C45.5017 9.0778 45.3278 8.99973 45.1426 8.97306L41.8613 8.49993L40.3953 5.55443C40.3124 5.38789 40.1847 5.24778 40.0265 5.14983C39.8684 5.05189 39.686 5 39.5 5C39.314 5 39.1316 5.05189 38.9735 5.14983C38.8153 5.24778 38.6876 5.38789 38.6048 5.55443L37.1388 8.49993L33.8574 8.97281C33.6722 8.99949 33.4983 9.07756 33.3553 9.19815C33.2123 9.31874 33.106 9.47701 33.0485 9.65499C32.991 9.83296 32.9845 10.0235 33.0299 10.205C33.0752 10.3864 33.1705 10.5516 33.305 10.6816L35.675 12.9723L35.116 16.2046C35.0842 16.3882 35.1045 16.5772 35.1744 16.75C35.2443 16.9228 35.3611 17.0726 35.5116 17.1825C35.6622 17.2925 35.8405 17.3581 36.0263 17.3721C36.2122 17.3861 36.3983 17.3478 36.5636 17.2617L39.5011 15.7304L42.4386 17.2617C42.6039 17.3478 42.79 17.3861 42.9759 17.3721C43.1618 17.3581 43.3401 17.2925 43.4906 17.1825C43.6412 17.0726 43.758 16.9228 43.8279 16.75C43.8978 16.5772 43.918 16.3882 43.8863 16.2046L43.325 12.9723L45.6945 10.6818C45.8291 10.5519 45.9245 10.3868 45.97 10.2053C46.0154 10.0238 46.009 9.83321 45.9515 9.65518ZM41.555 11.9022C41.4378 12.0155 41.35 12.1558 41.2994 12.3108C41.2488 12.4658 41.2369 12.6309 41.2646 12.7916L41.5694 14.5541L39.9624 13.7166C39.8196 13.6421 39.6609 13.6032 39.4999 13.6032C39.3388 13.6032 39.1802 13.6421 39.0374 13.7166L37.4304 14.5541L37.7351 12.7916C37.7629 12.6309 37.751 12.4658 37.7004 12.3108C37.6498 12.1558 37.562 12.0155 37.4448 11.9022L36.1614 10.6616L37.9428 10.4049C38.1029 10.3819 38.255 10.3203 38.3861 10.2255C38.5172 10.1307 38.6233 10.0055 38.6954 9.86068L39.5 8.24443L40.3044 9.86068C40.3765 10.0055 40.4826 10.1307 40.6137 10.2255C40.7448 10.3203 40.8969 10.3819 41.057 10.4049L42.8384 10.6616L41.555 11.9022Z" fill="#F37321"/>
<path d="M18.9515 10.2802C18.894 10.1022 18.7877 9.94395 18.6447 9.82337C18.5017 9.7028 18.3278 9.62473 18.1426 9.59806L14.8613 9.12493L13.3953 6.17943C13.3124 6.01289 13.1847 5.87278 13.0265 5.77483C12.8684 5.67689 12.686 5.625 12.5 5.625C12.314 5.625 12.1317 5.67689 11.9735 5.77483C11.8154 5.87278 11.6877 6.01289 11.6048 6.17943L10.1388 9.12493L6.85741 9.59781C6.67228 9.62449 6.49834 9.70256 6.35536 9.82315C6.21237 9.94374 6.10608 10.102 6.04855 10.28C5.99101 10.458 5.98455 10.6485 6.02989 10.83C6.07523 11.0114 6.17055 11.1766 6.30503 11.3066L8.67503 13.5973L8.11603 16.8296C8.08427 17.0132 8.10449 17.2022 8.1744 17.375C8.24431 17.5478 8.36113 17.6976 8.51167 17.8075C8.66221 17.9175 8.84049 17.9831 9.02638 17.9971C9.21226 18.0111 9.39836 17.9728 9.56366 17.8867L12.5011 16.3554L15.4386 17.8867C15.6039 17.9728 15.79 18.0111 15.9759 17.9971C16.1618 17.9831 16.3401 17.9175 16.4906 17.8075C16.6412 17.6976 16.758 17.5478 16.8279 17.375C16.8978 17.2022 16.918 17.0132 16.8863 16.8296L16.325 13.5973L18.6945 11.3068C18.8291 11.1769 18.9245 11.0118 18.97 10.8303C19.0154 10.6488 19.009 10.4582 18.9515 10.2802ZM14.555 12.5272C14.4378 12.6405 14.35 12.7808 14.2994 12.9358C14.2488 13.0908 14.2369 13.2559 14.2646 13.4166L14.5694 15.1791L12.9624 14.3416C12.8196 14.2671 12.6609 14.2282 12.4999 14.2282C12.3389 14.2282 12.1802 14.2671 12.0374 14.3416L10.4304 15.1791L10.7351 13.4166C10.7629 13.2559 10.751 13.0908 10.7004 12.9358C10.6498 12.7808 10.562 12.6405 10.4448 12.5272L9.16141 11.2866L10.9428 11.0299C11.1029 11.0069 11.255 10.9453 11.3861 10.8505C11.5172 10.7557 11.6233 10.6305 11.6954 10.4857L12.5 8.86943L13.3044 10.4857C13.3765 10.6305 13.4826 10.7557 13.6137 10.8505C13.7448 10.9453 13.8969 11.0069 14.057 11.0299L15.8384 11.2866L14.555 12.5272Z" fill="#F37321"/>
<path d="M59 38.9999H53C52.8088 39 52.6217 39.0549 52.4608 39.1581C52.2999 39.2613 52.172 39.4085 52.0923 39.5823C52.0116 39.4545 51.9408 39.3208 51.8804 39.1823L49.9191 34.6062C49.9164 34.5994 49.9134 34.5928 49.9104 34.5862L44.9104 23.5862C44.8547 23.4638 44.775 23.3539 44.6759 23.263C44.5768 23.1722 44.4604 23.1022 44.3337 23.0574C44.207 23.0125 44.0725 22.9937 43.9383 23.002C43.8041 23.0103 43.673 23.0455 43.5528 23.1057C42.3229 23.7205 41.5606 24.4995 41.1222 25.364C37.6468 22.536 33.4462 20.7422 29 20.1874V17.9999H30C30.2652 17.9999 30.5196 17.8946 30.7071 17.707C30.8946 17.5195 31 17.2651 31 16.9999C31 16.7347 30.8946 16.4803 30.7071 16.2928C30.5196 16.1053 30.2652 15.9999 30 15.9999H22C21.7348 15.9999 21.4804 16.1053 21.2929 16.2928C21.1054 16.4803 21 16.7347 21 16.9999C21 17.2651 21.1054 17.5195 21.2929 17.707C21.4804 17.8946 21.7348 17.9999 22 17.9999H23V20.1874C11.5014 21.6273 2.50725 31.2342 2.02238 42.9999H1C0.734784 42.9999 0.48043 43.1053 0.292893 43.2928C0.105357 43.4803 0 43.7347 0 43.9999V45.9999C0.000893291 46.7953 0.317251 47.5578 0.879666 48.1202C1.44208 48.6827 2.20462 48.999 3 48.9999H30.7664C31.1521 49.431 31.6541 49.7415 32.2121 49.8942C32.0313 50.3491 31.9646 50.8414 32.0178 51.3281C32.0711 51.8148 32.2428 52.281 32.5178 52.686C32.7928 53.091 33.1628 53.4225 33.5955 53.6516C34.0282 53.8806 34.5104 54.0002 35 53.9999H52C52 54.2651 52.1054 54.5195 52.2929 54.707C52.4804 54.8946 52.7348 54.9999 53 54.9999H59C59.2652 54.9999 59.5196 54.8946 59.7071 54.707C59.8946 54.5195 60 54.2651 60 53.9999V39.9999C60 39.7347 59.8946 39.4803 59.7071 39.2928C59.5196 39.1053 59.2652 38.9999 59 38.9999ZM25 17.9999H27V20.0217C26.6676 20.008 26.3343 19.9999 26 19.9999C25.6658 19.9999 25.3319 20.0087 25 20.0223V17.9999ZM26 21.9999C31.3908 21.9935 36.5952 23.9729 40.6191 27.5603C40.5981 29.2192 41.2139 30.9472 41.7066 32.3279C41.83 32.6738 41.9465 33.0005 42.0518 33.3162C42.5281 34.7454 42.4781 35.5807 42.378 35.9999H33C32.4207 35.9995 31.8537 36.167 31.3676 36.482C30.8814 36.797 30.497 37.2462 30.2607 37.7751C30.0244 38.304 29.9464 38.8901 30.0362 39.4624C30.1259 40.0347 30.3795 40.5687 30.7664 40.9999C30.2725 41.5489 29.9995 42.2614 30 42.9999H4.02375C4.54838 31.3314 14.2044 21.9999 26 21.9999ZM32 38.9999C32.0003 38.7348 32.1058 38.4806 32.2932 38.2931C32.4807 38.1057 32.7349 38.0002 33 37.9999H41C41.2652 37.9999 41.5196 38.1053 41.7071 38.2928C41.8946 38.4803 42 38.7347 42 38.9999C42 39.2651 41.8946 39.5195 41.7071 39.707C41.5196 39.8946 41.2652 39.9999 41 39.9999H33C32.7349 39.9996 32.4807 39.8942 32.2932 39.7067C32.1058 39.5192 32.0003 39.265 32 38.9999ZM32 42.9999C32.0003 42.7348 32.1058 42.4806 32.2932 42.2931C32.4807 42.1057 32.7349 42.0002 33 41.9999H41C41.2652 41.9999 41.5196 42.1053 41.7071 42.2928C41.8946 42.4803 42 42.7347 42 42.9999C42 43.2651 41.8946 43.5195 41.7071 43.707C41.5196 43.8946 41.2652 43.9999 41 43.9999H33C32.7349 43.9996 32.4807 43.8942 32.2932 43.7067C32.1058 43.5192 32.0003 43.265 32 42.9999ZM3 46.9999C2.73487 46.9996 2.48069 46.8942 2.29322 46.7067C2.10575 46.5192 2.0003 46.265 2 45.9999V44.9999H30.7664C30.2725 45.5489 29.9995 46.2614 30 46.9999H3ZM33 45.9999H41C41.2652 45.9999 41.5196 46.1053 41.7071 46.2928C41.8946 46.4803 42 46.7347 42 46.9999C42 47.2651 41.8946 47.5195 41.7071 47.707C41.5196 47.8946 41.2652 47.9999 41 47.9999H33C32.7348 47.9999 32.4804 47.8946 32.2929 47.707C32.1054 47.5195 32 47.2651 32 46.9999C32 46.7347 32.1054 46.4803 32.2929 46.2928C32.4804 46.1053 32.7348 45.9999 33 45.9999ZM35 51.9999C34.7348 51.9999 34.4804 51.8946 34.2929 51.707C34.1054 51.5195 34 51.2651 34 50.9999C34 50.7347 34.1054 50.4803 34.2929 50.2928C34.4804 50.1053 34.7348 49.9999 35 49.9999H41C41.2652 49.9999 41.5196 50.1053 41.7071 50.2928C41.8946 50.4803 42 50.7347 42 50.9999C42 51.2651 41.8946 51.5195 41.7071 51.707C41.5196 51.8946 41.2652 51.9999 41 51.9999H35ZM43.828 51.9999C44.0078 51.4926 44.0475 50.9462 43.9429 50.4183C43.8383 49.8903 43.5933 49.4003 43.2336 48.9999C43.727 48.4506 44 47.7383 44 46.9999C44 46.2615 43.727 45.5492 43.2336 44.9999C43.3723 44.845 43.4947 44.6761 43.5986 44.496C44.8319 45.1342 46.8926 45.9999 49 45.9999C49.2652 45.9999 49.5196 45.8946 49.7071 45.707C49.8946 45.5195 50 45.2651 50 44.9999C50 44.7347 49.8946 44.4803 49.7071 44.2928C49.5196 44.1053 49.2652 43.9999 49 43.9999C46.9323 43.9999 44.7943 42.8965 43.94 42.402C43.8335 41.8801 43.5897 41.3961 43.2336 40.9999C43.6292 40.5594 43.8853 40.0114 43.9696 39.4254C44.0538 38.8393 43.9624 38.2414 43.7069 37.7073C43.9469 37.4673 45.0863 36.0973 43.9484 32.6839C43.8366 32.3487 43.7168 32.0123 43.5898 31.6564C42.5881 28.8474 42.0295 26.8035 43.5684 25.4678L48.0849 35.404L50.042 39.9707C50.445 40.9127 51.1287 41.7076 52 42.2469V51.9999H43.828ZM58 52.9999H54V40.9999H58V52.9999Z" fill="#F37321"/>
<path d="M32.4515 5.65518C32.394 5.47722 32.2877 5.31895 32.1447 5.19837C32.0017 5.0778 31.8278 4.99973 31.6426 4.97306L28.3613 4.49993L26.8953 1.55444C26.8124 1.3879 26.6847 1.24778 26.5265 1.14983C26.3684 1.05189 26.186 1 26 1C25.814 1 25.6317 1.05189 25.4735 1.14983C25.3154 1.24778 25.1877 1.3879 25.1048 1.55444L23.6388 4.49993L20.3574 4.97281C20.1723 4.99949 19.9983 5.07756 19.8553 5.19815C19.7124 5.31874 19.6061 5.47701 19.5485 5.65499C19.491 5.83297 19.4845 6.02351 19.5299 6.20498C19.5752 6.38644 19.6705 6.55156 19.805 6.68156L22.175 8.97231L21.616 12.2046C21.5843 12.3882 21.6045 12.5771 21.6744 12.75C21.7443 12.9228 21.8611 13.0726 22.0117 13.1825C22.1622 13.2925 22.3405 13.3581 22.5264 13.3721C22.7122 13.3861 22.8983 13.3478 23.0636 13.2617L26.0011 11.7304L28.9386 13.2617C29.1039 13.3478 29.29 13.3861 29.4759 13.3721C29.6618 13.3581 29.8401 13.2925 29.9906 13.1825C30.1412 13.0726 30.258 12.9228 30.3279 12.75C30.3978 12.5771 30.418 12.3882 30.3863 12.2046L29.825 8.97231L32.195 6.68181C32.3295 6.5518 32.4249 6.38668 32.4702 6.2052C32.5155 6.02373 32.5091 5.83317 32.4515 5.65518ZM28.055 7.90218C27.9378 8.01552 27.85 8.1558 27.7994 8.31082C27.7488 8.46583 27.7369 8.63087 27.7646 8.79156L28.0694 10.5541L26.4624 9.71656C26.3196 9.64207 26.1609 9.60318 25.9999 9.60318C25.8388 9.60318 25.6802 9.64207 25.5374 9.71656L23.9304 10.5541L24.2351 8.79156C24.2629 8.63087 24.251 8.46583 24.2004 8.31082C24.1498 8.1558 24.062 8.01552 23.9448 7.90218L22.6614 6.66156L24.4428 6.40493C24.6029 6.38186 24.755 6.32028 24.8861 6.22549C25.0172 6.13069 25.1233 6.00551 25.1954 5.86068L26 4.24443L26.8044 5.86068C26.8765 6.00551 26.9826 6.13069 27.1137 6.22549C27.2448 6.32028 27.3969 6.38186 27.557 6.40493L29.3384 6.66156L28.055 7.90218Z" stroke="#F37321" stroke-width="0.2"/>
<path d="M45.9515 9.65518C45.894 9.47721 45.7877 9.31895 45.6447 9.19837C45.5017 9.0778 45.3278 8.99973 45.1426 8.97306L41.8613 8.49993L40.3953 5.55443C40.3124 5.38789 40.1847 5.24778 40.0265 5.14983C39.8684 5.05189 39.686 5 39.5 5C39.314 5 39.1316 5.05189 38.9735 5.14983C38.8153 5.24778 38.6876 5.38789 38.6048 5.55443L37.1388 8.49993L33.8574 8.97281C33.6722 8.99949 33.4983 9.07756 33.3553 9.19815C33.2123 9.31874 33.106 9.47701 33.0485 9.65499C32.991 9.83296 32.9845 10.0235 33.0299 10.205C33.0752 10.3864 33.1705 10.5516 33.305 10.6816L35.675 12.9723L35.116 16.2046C35.0842 16.3882 35.1045 16.5772 35.1744 16.75C35.2443 16.9228 35.3611 17.0726 35.5116 17.1825C35.6622 17.2925 35.8405 17.3581 36.0263 17.3721C36.2122 17.3861 36.3983 17.3478 36.5636 17.2617L39.5011 15.7304L42.4386 17.2617C42.6039 17.3478 42.79 17.3861 42.9759 17.3721C43.1618 17.3581 43.3401 17.2925 43.4906 17.1825C43.6412 17.0726 43.758 16.9228 43.8279 16.75C43.8978 16.5772 43.918 16.3882 43.8863 16.2046L43.325 12.9723L45.6945 10.6818C45.8291 10.5519 45.9245 10.3868 45.97 10.2053C46.0154 10.0238 46.009 9.83321 45.9515 9.65518ZM41.555 11.9022C41.4378 12.0155 41.35 12.1558 41.2994 12.3108C41.2488 12.4658 41.2369 12.6309 41.2646 12.7916L41.5694 14.5541L39.9624 13.7166C39.8196 13.6421 39.6609 13.6032 39.4999 13.6032C39.3388 13.6032 39.1802 13.6421 39.0374 13.7166L37.4304 14.5541L37.7351 12.7916C37.7629 12.6309 37.751 12.4658 37.7004 12.3108C37.6498 12.1558 37.562 12.0155 37.4448 11.9022L36.1614 10.6616L37.9428 10.4049C38.1029 10.3819 38.255 10.3203 38.3861 10.2255C38.5172 10.1307 38.6233 10.0055 38.6954 9.86068L39.5 8.24443L40.3044 9.86068C40.3765 10.0055 40.4826 10.1307 40.6137 10.2255C40.7448 10.3203 40.8969 10.3819 41.057 10.4049L42.8384 10.6616L41.555 11.9022Z" stroke="#F37321" stroke-width="0.2"/>
<path d="M18.9515 10.2802C18.894 10.1022 18.7877 9.94395 18.6447 9.82337C18.5017 9.7028 18.3278 9.62473 18.1426 9.59806L14.8613 9.12493L13.3953 6.17943C13.3124 6.01289 13.1847 5.87278 13.0265 5.77483C12.8684 5.67689 12.686 5.625 12.5 5.625C12.314 5.625 12.1317 5.67689 11.9735 5.77483C11.8154 5.87278 11.6877 6.01289 11.6048 6.17943L10.1388 9.12493L6.85741 9.59781C6.67228 9.62449 6.49834 9.70256 6.35536 9.82315C6.21237 9.94374 6.10608 10.102 6.04855 10.28C5.99101 10.458 5.98455 10.6485 6.02989 10.83C6.07523 11.0114 6.17055 11.1766 6.30503 11.3066L8.67503 13.5973L8.11603 16.8296C8.08427 17.0132 8.10449 17.2022 8.1744 17.375C8.24431 17.5478 8.36113 17.6976 8.51167 17.8075C8.66221 17.9175 8.84049 17.9831 9.02638 17.9971C9.21226 18.0111 9.39836 17.9728 9.56366 17.8867L12.5011 16.3554L15.4386 17.8867C15.6039 17.9728 15.79 18.0111 15.9759 17.9971C16.1618 17.9831 16.3401 17.9175 16.4906 17.8075C16.6412 17.6976 16.758 17.5478 16.8279 17.375C16.8978 17.2022 16.918 17.0132 16.8863 16.8296L16.325 13.5973L18.6945 11.3068C18.8291 11.1769 18.9245 11.0118 18.97 10.8303C19.0154 10.6488 19.009 10.4582 18.9515 10.2802ZM14.555 12.5272C14.4378 12.6405 14.35 12.7808 14.2994 12.9358C14.2488 13.0908 14.2369 13.2559 14.2646 13.4166L14.5694 15.1791L12.9624 14.3416C12.8196 14.2671 12.6609 14.2282 12.4999 14.2282C12.3389 14.2282 12.1802 14.2671 12.0374 14.3416L10.4304 15.1791L10.7351 13.4166C10.7629 13.2559 10.751 13.0908 10.7004 12.9358C10.6498 12.7808 10.562 12.6405 10.4448 12.5272L9.16141 11.2866L10.9428 11.0299C11.1029 11.0069 11.255 10.9453 11.3861 10.8505C11.5172 10.7557 11.6233 10.6305 11.6954 10.4857L12.5 8.86943L13.3044 10.4857C13.3765 10.6305 13.4826 10.7557 13.6137 10.8505C13.7448 10.9453 13.8969 11.0069 14.057 11.0299L15.8384 11.2866L14.555 12.5272Z" stroke="#F37321" stroke-width="0.2"/>
<path d="M59 38.9999H53C52.8088 39 52.6217 39.0549 52.4608 39.1581C52.2999 39.2613 52.172 39.4085 52.0923 39.5823C52.0116 39.4545 51.9408 39.3208 51.8804 39.1823L49.9191 34.6062C49.9164 34.5994 49.9134 34.5928 49.9104 34.5862L44.9104 23.5862C44.8547 23.4638 44.775 23.3539 44.6759 23.263C44.5768 23.1722 44.4604 23.1022 44.3337 23.0574C44.207 23.0125 44.0725 22.9937 43.9383 23.002C43.8041 23.0103 43.673 23.0455 43.5528 23.1057C42.3229 23.7205 41.5606 24.4995 41.1222 25.364C37.6468 22.536 33.4462 20.7422 29 20.1874V17.9999H30C30.2652 17.9999 30.5196 17.8946 30.7071 17.707C30.8946 17.5195 31 17.2651 31 16.9999C31 16.7347 30.8946 16.4803 30.7071 16.2928C30.5196 16.1053 30.2652 15.9999 30 15.9999H22C21.7348 15.9999 21.4804 16.1053 21.2929 16.2928C21.1054 16.4803 21 16.7347 21 16.9999C21 17.2651 21.1054 17.5195 21.2929 17.707C21.4804 17.8946 21.7348 17.9999 22 17.9999H23V20.1874C11.5014 21.6273 2.50725 31.2342 2.02238 42.9999H1C0.734784 42.9999 0.48043 43.1053 0.292893 43.2928C0.105357 43.4803 0 43.7347 0 43.9999V45.9999C0.000893291 46.7953 0.317251 47.5578 0.879666 48.1202C1.44208 48.6827 2.20462 48.999 3 48.9999H30.7664C31.1521 49.431 31.6541 49.7415 32.2121 49.8942C32.0313 50.3491 31.9646 50.8414 32.0178 51.3281C32.0711 51.8148 32.2428 52.281 32.5178 52.686C32.7928 53.091 33.1628 53.4225 33.5955 53.6516C34.0282 53.8806 34.5104 54.0002 35 53.9999H52C52 54.2651 52.1054 54.5195 52.2929 54.707C52.4804 54.8946 52.7348 54.9999 53 54.9999H59C59.2652 54.9999 59.5196 54.8946 59.7071 54.707C59.8946 54.5195 60 54.2651 60 53.9999V39.9999C60 39.7347 59.8946 39.4803 59.7071 39.2928C59.5196 39.1053 59.2652 38.9999 59 38.9999ZM25 17.9999H27V20.0217C26.6676 20.008 26.3343 19.9999 26 19.9999C25.6658 19.9999 25.3319 20.0087 25 20.0223V17.9999ZM26 21.9999C31.3908 21.9935 36.5952 23.9729 40.6191 27.5603C40.5981 29.2192 41.2139 30.9472 41.7066 32.3279C41.83 32.6738 41.9465 33.0005 42.0518 33.3162C42.5281 34.7454 42.4781 35.5807 42.378 35.9999H33C32.4207 35.9995 31.8537 36.167 31.3676 36.482C30.8814 36.797 30.497 37.2462 30.2607 37.7751C30.0244 38.304 29.9464 38.8901 30.0362 39.4624C30.1259 40.0347 30.3795 40.5687 30.7664 40.9999C30.2725 41.5489 29.9995 42.2614 30 42.9999H4.02375C4.54838 31.3314 14.2044 21.9999 26 21.9999ZM32 38.9999C32.0003 38.7348 32.1058 38.4806 32.2932 38.2931C32.4807 38.1057 32.7349 38.0002 33 37.9999H41C41.2652 37.9999 41.5196 38.1053 41.7071 38.2928C41.8946 38.4803 42 38.7347 42 38.9999C42 39.2651 41.8946 39.5195 41.7071 39.707C41.5196 39.8946 41.2652 39.9999 41 39.9999H33C32.7349 39.9996 32.4807 39.8942 32.2932 39.7067C32.1058 39.5192 32.0003 39.265 32 38.9999ZM32 42.9999C32.0003 42.7348 32.1058 42.4806 32.2932 42.2931C32.4807 42.1057 32.7349 42.0002 33 41.9999H41C41.2652 41.9999 41.5196 42.1053 41.7071 42.2928C41.8946 42.4803 42 42.7347 42 42.9999C42 43.2651 41.8946 43.5195 41.7071 43.707C41.5196 43.8946 41.2652 43.9999 41 43.9999H33C32.7349 43.9996 32.4807 43.8942 32.2932 43.7067C32.1058 43.5192 32.0003 43.265 32 42.9999ZM3 46.9999C2.73487 46.9996 2.48069 46.8942 2.29322 46.7067C2.10575 46.5192 2.0003 46.265 2 45.9999V44.9999H30.7664C30.2725 45.5489 29.9995 46.2614 30 46.9999H3ZM33 45.9999H41C41.2652 45.9999 41.5196 46.1053 41.7071 46.2928C41.8946 46.4803 42 46.7347 42 46.9999C42 47.2651 41.8946 47.5195 41.7071 47.707C41.5196 47.8946 41.2652 47.9999 41 47.9999H33C32.7348 47.9999 32.4804 47.8946 32.2929 47.707C32.1054 47.5195 32 47.2651 32 46.9999C32 46.7347 32.1054 46.4803 32.2929 46.2928C32.4804 46.1053 32.7348 45.9999 33 45.9999ZM35 51.9999C34.7348 51.9999 34.4804 51.8946 34.2929 51.707C34.1054 51.5195 34 51.2651 34 50.9999C34 50.7347 34.1054 50.4803 34.2929 50.2928C34.4804 50.1053 34.7348 49.9999 35 49.9999H41C41.2652 49.9999 41.5196 50.1053 41.7071 50.2928C41.8946 50.4803 42 50.7347 42 50.9999C42 51.2651 41.8946 51.5195 41.7071 51.707C41.5196 51.8946 41.2652 51.9999 41 51.9999H35ZM43.828 51.9999C44.0078 51.4926 44.0475 50.9462 43.9429 50.4183C43.8383 49.8903 43.5933 49.4003 43.2336 48.9999C43.727 48.4506 44 47.7383 44 46.9999C44 46.2615 43.727 45.5492 43.2336 44.9999C43.3723 44.845 43.4947 44.6761 43.5986 44.496C44.8319 45.1342 46.8926 45.9999 49 45.9999C49.2652 45.9999 49.5196 45.8946 49.7071 45.707C49.8946 45.5195 50 45.2651 50 44.9999C50 44.7347 49.8946 44.4803 49.7071 44.2928C49.5196 44.1053 49.2652 43.9999 49 43.9999C46.9323 43.9999 44.7943 42.8965 43.94 42.402C43.8335 41.8801 43.5897 41.3961 43.2336 40.9999C43.6292 40.5594 43.8853 40.0114 43.9696 39.4254C44.0538 38.8393 43.9624 38.2414 43.7069 37.7073C43.9469 37.4673 45.0863 36.0973 43.9484 32.6839C43.8366 32.3487 43.7168 32.0123 43.5898 31.6564C42.5881 28.8474 42.0295 26.8035 43.5684 25.4678L48.0849 35.404L50.042 39.9707C50.445 40.9127 51.1287 41.7076 52 42.2469V51.9999H43.828ZM58 52.9999H54V40.9999H58V52.9999Z" stroke="#F37321" stroke-width="0.2"/>
</g>
<defs>
<clipPath id="clip0_1_456">
<rect width="60" height="56" fill="white"/>
</clipPath>
</defs>
</svg>
